<svg width="500" height="500" viewBox="0 0 500 500" fill="none" xmlns="http://www.w3.org/2000/svg">
<path d="M423.24 210C423.83 205.74 417.82 202.24 413.3 201.88C411.15 201.71 408.91 202.03 406.87 201.32C402.46 199.78 400.69 194.07 396.38 192.26C393.16 190.9 389.44 192.11 386.32 193.68C383.2 195.25 380.11 197.23 376.61 197.45C373.61 197.65 370.28 196.52 367.61 198.01C365.61 199.11 364.61 201.39 362.77 202.74C360.93 204.09 358.66 204.34 356.44 204.46C354.22 204.58 351.93 204.6 349.91 205.52C347.89 206.44 346.23 208.58 346.65 210.76L423.24 210Z" fill="#F5F5F5"/>
<path d="M443.66 284.35L456.67 276.88L460.98 254.48L464.62 255.47L461.47 276.64L473.93 268.21L476.66 271.34L460.16 281.84L443.66 289.57V284.35Z" fill="#EBEBEB"/>
<path d="M435.94 397.4H445.47V251.67H435.94V397.4Z" fill="#EBEBEB"/>
<path d="M443.3 15.52C443.3 16.82 468.89 97.52 468.89 97.52L456.09 84.52L474.52 140.89L462.38 123.98L476.69 194.66L469.75 187.29L481.89 237.15L471.49 224.15L481.89 261.44L399.5 255.37L419 185.07L407.21 198.07L422.47 146.9L414.66 151.23L432.44 85.32L424.22 91L443.3 15.52Z" fill="#E0E0E0"/>
<path d="M440.54 159.48C440.641 159.891 440.778 160.293 440.95 160.68C441.28 161.51 441.71 162.61 442.23 163.95L446.85 175.24L447.05 175.74L447.31 175.26C448.606 172.853 449.729 170.357 450.67 167.79C451.04 166.79 451.37 165.79 451.67 164.79H451.17C453.44 170.58 455.67 175.63 457.34 179.21C458.18 181.01 458.88 182.43 459.34 183.41L459.92 184.53C460.06 184.78 460.14 184.91 460.16 184.9C459.986 184.361 459.772 183.837 459.52 183.33L457.64 179.07C456.05 175.45 453.89 170.38 451.64 164.59L451.37 163.88L451.14 164.61C450.85 165.61 450.52 166.55 450.14 167.54C449.212 170.086 448.11 172.566 446.84 174.96H447.3L442.5 163.75C441.92 162.43 441.5 161.35 441.08 160.53C440.928 160.166 440.748 159.815 440.54 159.48Z" fill="#EBEBEB"/>
<path d="M431.76 129.37C431.952 129.102 432.107 128.81 432.22 128.5L433.41 126.04C434.41 123.94 435.93 121.04 437.87 117.75L437.4 117.69L438.71 122.75C439 123.86 439.29 124.94 439.56 125.98L439.75 126.7L440.06 126.02C441.81 122.11 443.34 118.67 444.4 116.19L445.64 113.27C445.803 112.924 445.931 112.562 446.02 112.19C445.801 112.504 445.613 112.839 445.46 113.19L444.09 116.04C442.93 118.48 441.35 121.89 439.58 125.79H440.07C439.8 124.79 439.52 123.67 439.23 122.57L437.89 117.5L437.74 116.9L437.42 117.44C435.832 120.162 434.397 122.969 433.12 125.85C432.64 126.93 432.29 127.79 432.07 128.38C431.924 128.695 431.82 129.028 431.76 129.37Z" fill="#EBEBEB"/>
<path d="M443.43 67.58C443.842 68.5726 444.331 69.5321 444.89 70.45C445.89 72.21 447.22 74.65 448.8 77.45L449.16 78.08L449.29 77.37C449.43 76.57 449.58 75.74 449.74 74.89C449.99 73.42 450.24 72.01 450.47 70.7L450 70.79C451.47 73.12 452.75 75.11 453.67 76.51C454.124 77.2791 454.643 78.0083 455.22 78.69C454.857 77.8738 454.429 77.088 453.94 76.34C453.1 74.9 451.87 72.87 450.43 70.52L450.08 69.95L449.96 70.61C449.73 71.92 449.47 73.33 449.21 74.79C449.06 75.64 448.91 76.47 448.77 77.28L449.26 77.19C447.65 74.43 446.26 72.03 445.18 70.32C444.669 69.3626 444.084 68.4465 443.43 67.58Z" fill="#EBEBEB"/>
<path d="M57.43 293.7L70.44 286.84L74.75 266.26L78.38 267.17L75.23 286.62L87.7 278.87L90.43 281.75L73.93 291.39L57.43 298.5V293.7Z" fill="#EBEBEB"/>
<path d="M49.7 397.55H59.23L59.23 263.68H49.7L49.7 397.55Z" fill="#EBEBEB"/>
<path d="M57.07 46.74C57.07 47.94 82.65 122.03 82.65 122.03L69.86 110.03L88.29 161.81L76.15 146.33L90.46 211.26L83.52 204.49L95.66 250.3L85.25 238.3L95.66 272.56L13.27 267L32.78 202.5L21 214.45L36.25 167.45L28.45 171.45L46.23 110.91L38 116.05L57.07 46.74Z" fill="#E0E0E0"/>
<path d="M54.3 179C54.4062 179.377 54.5434 179.745 54.71 180.1L56 183.1L60.61 193.48L60.82 193.93L61.07 193.5C62.3641 191.299 63.4874 189.003 64.43 186.63C64.8 185.71 65.14 184.79 65.43 183.91H64.92C67.2 189.24 69.42 193.91 71.1 197.16C71.94 198.81 72.63 200.16 73.1 201.02L73.68 202.02C73.7437 202.145 73.8209 202.262 73.91 202.37C73.7423 201.898 73.5384 201.44 73.3 201L71.43 197C69.84 193.67 67.68 189 65.43 183.7L65.15 183.05L64.93 183.72C64.64 184.59 64.3 185.5 63.93 186.41C62.9917 188.76 61.8855 191.039 60.62 193.23H61.08L56.29 183L54.87 180C54.7149 179.648 54.5239 179.313 54.3 179Z" fill="#EBEBEB"/>
<path d="M45.53 151.33C45.7108 151.08 45.865 150.812 45.99 150.53L47.18 148.27C48.18 146.35 49.69 143.66 51.63 140.66L51.16 140.6L52.48 145.25C52.77 146.25 53.05 147.25 53.33 148.25L53.52 148.92L53.82 148.29C55.58 144.7 57.1 141.54 58.17 139.29L59.4 136.6C59.5675 136.283 59.6984 135.947 59.79 135.6C59.5675 135.883 59.3795 136.192 59.23 136.52C58.87 137.22 58.41 138.09 57.85 139.14C56.7 141.38 55.12 144.52 53.34 148.14H53.84C53.57 147.14 53.29 146.14 53 145.14L51.66 140.49L51.5 139.93L51.19 140.43C49.6041 142.921 48.1649 145.502 46.88 148.16C46.41 149.16 46.06 149.93 45.83 150.48C45.6895 150.747 45.5885 151.034 45.53 151.33Z" fill="#EBEBEB"/>
<path d="M57.2 94.57C57.6092 95.4855 58.0943 96.3653 58.65 97.2C59.65 98.82 60.98 101.06 62.57 103.6L62.93 104.18L63.06 103.52L63.5 101.24C63.76 99.89 64 98.6 64.23 97.4L63.77 97.48C65.24 99.62 66.52 101.48 67.44 102.74C67.9019 103.447 68.4202 104.116 68.99 104.74C68.6258 103.985 68.1975 103.262 67.71 102.58C66.86 101.25 65.64 99.39 64.2 97.23L63.85 96.71L63.73 97.31C63.49 98.51 63.24 99.81 62.97 101.16C62.82 101.94 62.68 102.7 62.54 103.44L63.02 103.36C61.42 100.83 60.02 98.62 58.95 97.04C58.4285 96.1746 57.8435 95.349 57.2 94.57Z" fill="#EBEBEB"/>
<path d="M481.75 397.21C481.75 397.35 381.75 397.47 258.47 397.47C135.19 397.47 35.17 397.35 35.17 397.21C35.17 397.07 135.17 396.95 258.47 396.95C381.77 396.95 481.75 397.06 481.75 397.21Z" fill="#E0E0E0"/>
<path d="M261.63 372.78C261.861 373.031 262.066 373.306 262.24 373.6C262.6 374.14 263.1 374.94 263.68 375.96C266.701 381.252 268.957 386.945 270.38 392.87C270.65 394.01 270.84 394.93 270.94 395.57C271.02 395.897 271.06 396.233 271.06 396.57C270.98 396.57 270.65 395.19 270.06 392.95C269.25 390.039 268.288 387.171 267.18 384.36C266.06 381.551 264.799 378.801 263.4 376.12C262.754 375.037 262.164 373.922 261.63 372.78Z" fill="#E0E0E0"/>
<path d="M272.08 364.58C272.145 365.003 272.169 365.432 272.15 365.86C272.15 366.79 272.15 367.96 272.15 369.36C272.21 372.3 272.36 376.36 272.76 380.85C273.16 385.34 273.76 389.36 274.22 392.27C274.45 393.64 274.64 394.8 274.8 395.71C274.911 396.132 274.978 396.564 275 397C274.833 396.602 274.713 396.186 274.64 395.76C274.44 394.96 274.18 393.76 273.9 392.34C273.169 388.56 272.631 384.745 272.29 380.91C271.936 377.074 271.782 373.222 271.83 369.37C271.83 367.89 271.89 366.69 271.94 365.87C271.934 365.436 271.981 365.003 272.08 364.58Z" fill="#E0E0E0"/>
<path d="M283.25 369.05C283.33 369.05 282.87 370.59 282.25 373.05C281.463 376.283 280.882 379.563 280.51 382.87C280.156 386.174 280.009 389.497 280.07 392.82C280.12 395.38 280.23 396.96 280.15 396.97C280.041 396.613 279.978 396.243 279.96 395.87C279.86 395.15 279.77 394.12 279.7 392.87C279.373 386.171 280.119 379.463 281.91 373C282.26 371.77 282.58 370.78 282.82 370.1C282.926 369.736 283.071 369.384 283.25 369.05Z" fill="#E0E0E0"/>
<path d="M334.39 91.1C335.22 85.1 326.71 80.1 320.32 79.6C317.32 79.35 314.11 79.82 311.22 78.81C305 76.63 302.47 68.55 296.37 66C291.8 64.07 286.55 65.79 282.13 68C277.71 70.21 273.33 73 268.39 73.35C264.09 73.62 259.39 72.03 255.66 74.13C252.86 75.69 251.39 78.92 248.81 80.83C246.23 82.74 242.98 83.09 239.81 83.26C236.64 83.43 233.42 83.46 230.57 84.77C227.72 86.08 225.35 89.09 225.94 92.18L334.39 91.1Z" fill="#F5F5F5"/>
<path d="M162.19 48.45C162.78 44.19 156.77 40.69 152.25 40.32C150.1 40.15 147.86 40.48 145.82 39.77C141.4 38.23 139.63 32.52 135.32 30.7C132.09 29.34 128.38 30.55 125.25 32.12C122.12 33.69 119.03 35.67 115.54 35.9C112.54 36.09 109.2 34.97 106.54 36.45C104.54 37.56 103.54 39.84 101.69 41.19C99.84 42.54 97.57 42.78 95.36 42.9C93.15 43.02 90.85 43.05 88.83 43.97C86.81 44.89 85.15 47 85.57 49.21L162.19 48.45Z" fill="#F5F5F5"/>
<path d="M208.64 158.31C208.99 155.78 205.41 153.69 202.71 153.47C201.425 153.522 200.138 153.411 198.88 153.14C196.24 152.22 195.19 148.81 192.62 147.73C190.7 146.92 188.48 147.64 186.62 148.58C184.76 149.52 182.91 150.7 180.83 150.83C179.02 150.95 177.05 150.28 175.47 151.16C174.29 151.82 173.67 153.16 172.58 153.98C171.446 154.669 170.137 155.016 168.81 154.98C167.482 154.945 166.159 155.158 164.91 155.61C164.293 155.851 163.769 156.285 163.418 156.847C163.067 157.409 162.906 158.069 162.96 158.73L208.64 158.31Z" fill="#EBEBEB"/>
<path d="M417 54.45C417.35 51.91 413.77 49.82 411.07 49.61C409.784 49.6585 408.497 49.5443 407.24 49.27C404.6 48.36 403.55 44.95 400.98 43.87C399.06 43.05 396.84 43.78 394.98 44.71C393.12 45.64 391.27 46.83 389.19 46.97C387.38 47.08 385.41 46.41 383.83 47.3C382.65 47.96 382.03 49.3 380.94 50.12C379.802 50.8098 378.49 51.157 377.16 51.12C375.835 51.0882 374.515 51.3053 373.27 51.76C372.653 52.001 372.129 52.4347 371.778 52.9968C371.427 53.5589 371.266 54.2194 371.32 54.88L417 54.45Z" fill="#EBEBEB"/>
<path d="M473.11 476C473.11 476.14 374.11 476.26 252 476.26C129.89 476.26 30.87 476.13 30.87 476C30.87 475.87 129.87 475.74 252 475.74C374.13 475.74 473.11 475.84 473.11 476Z" fill="#263238"/>
<path d="M155.998 99.6022C159.086 92.1059 155.513 83.5254 148.017 80.4372C140.52 77.349 131.94 80.9224 128.852 88.4188C125.763 95.9151 129.337 104.496 136.833 107.584C144.33 110.672 152.91 107.099 155.998 99.6022Z" fill="#C53F3F"/>
<path d="M142.43 108.72C140.5 108.725 138.588 108.348 136.805 107.61C135.021 106.872 133.402 105.787 132.04 104.42C130.338 102.716 129.081 100.62 128.378 98.3166C127.675 96.013 127.549 93.5722 128.01 91.2084C128.471 88.8446 129.506 86.6301 131.022 84.7595C132.539 82.8889 134.492 81.4194 136.71 80.48C138.943 79.5367 141.375 79.1603 143.789 79.3844C146.203 79.6085 148.524 80.4262 150.545 81.7645C152.567 83.1029 154.226 84.9204 155.375 87.0552C156.523 89.1899 157.126 91.5757 157.13 94C157.126 96.8928 156.271 99.7203 154.67 102.13C153.07 104.54 150.795 106.425 148.13 107.55C146.327 108.316 144.389 108.714 142.43 108.72Z" fill="#C53F3F"/>
<path d="M140.34 126.85C140.26 126.85 140.19 124.14 140.19 120.85C140.19 117.56 140.26 114.79 140.34 114.79C140.501 116.806 140.554 118.829 140.5 120.85C140.552 122.851 140.499 124.854 140.34 126.85Z" fill="#C53F3F"/>
<path d="M140.34 126.87C140.34 126.87 140.26 126.87 140.22 125.08C140.22 123.94 140.17 122.42 140.17 120.8C140.17 119.18 140.17 117.66 140.22 116.51C140.22 114.73 140.31 114.73 140.34 114.73C140.37 114.73 140.42 114.73 140.47 116.51C140.47 117.66 140.47 119.18 140.47 120.8C140.47 122.42 140.47 123.94 140.47 125.08C140.42 126.87 140.37 126.87 140.34 126.87ZM140.34 114.77C140.27 114.99 140.2 117.29 140.2 120.77C140.2 124.25 140.27 126.57 140.34 126.77C140.41 126.54 140.48 124.24 140.48 120.77C140.48 117.3 140.41 115 140.34 114.77Z" fill="#C53F3F"/>
<path d="M131.88 111.33C131.95 111.33 130.57 113.9 128.8 116.98C127.775 118.867 126.654 120.699 125.44 122.47C125.37 122.47 126.75 119.9 128.53 116.82C130.31 113.74 131.81 111.28 131.88 111.33Z" fill="#C53F3F"/>
<path d="M125.45 122.49C125.45 122.49 125.38 122.49 126.29 120.78C126.87 119.71 127.67 118.3 128.53 116.78C129.39 115.26 130.21 113.91 130.84 112.87C131.73 111.4 131.84 111.28 131.84 111.28C131.84 111.28 131.91 111.28 131 112.99C130.41 114.06 129.62 115.47 128.76 116.99C127.24 119.62 125.54 122.45 125.4 122.49H125.45ZM131.87 111.35C131.69 111.53 130.4 113.61 128.54 116.83C126.68 120.05 125.54 122.2 125.46 122.45C125.64 122.27 126.92 120.19 128.78 116.97C130.64 113.75 131.8 111.6 131.87 111.35Z" fill="#C53F3F"/>
<path d="M123.2 105.92C122.127 106.973 120.981 107.949 119.77 108.84C118.626 109.815 117.417 110.711 116.15 111.52C117.226 110.47 118.372 109.495 119.58 108.6C120.719 107.619 121.929 106.723 123.2 105.92Z" fill="#C53F3F"/>
<path d="M116.15 111.54C116.15 111.54 116.15 111.48 117.15 110.62C117.8 110.06 118.67 109.35 119.62 108.62C120.769 107.648 121.978 106.75 123.24 105.93C122.159 106.978 121.014 107.956 119.81 108.86C118.87 109.6 117.97 110.3 117.29 110.8C116.947 111.099 116.563 111.348 116.15 111.54ZM123.15 105.94C121.904 106.762 120.706 107.653 119.56 108.61C118.363 109.511 117.217 110.479 116.13 111.51C117.384 110.691 118.586 109.796 119.73 108.83C120.934 107.933 122.085 106.968 123.18 105.94H123.15Z" fill="#C53F3F"/>
<path d="M155 120.89C154.823 120.407 154.692 119.908 154.61 119.4C154.4 118.47 154.1 117.2 153.73 115.8C153.36 114.4 152.97 113.16 152.73 112.25C152.546 111.771 152.408 111.275 152.32 110.77C152.574 111.218 152.782 111.69 152.94 112.18C153.27 113.07 153.69 114.32 154.06 115.72C154.43 117.12 154.71 118.42 154.87 119.35C154.968 119.857 155.011 120.374 155 120.89Z" fill="#C53F3F"/>
<path d="M155 120.9C154.95 120.9 154.89 120.68 154.6 119.4C154.4 118.54 154.09 117.23 153.71 115.81C153.33 114.39 152.93 113.08 152.71 112.25C152.34 111.04 152.26 110.78 152.31 110.76C152.36 110.74 152.36 110.76 152.53 111.14C152.7 111.52 152.79 111.77 152.95 112.14C153.18 112.75 153.63 114.02 154.08 115.69C154.53 117.36 154.77 118.69 154.88 119.32C154.991 119.826 155.048 120.342 155.05 120.86L155 120.9ZM152.28 110.79C152.28 110.9 152.47 111.49 152.7 112.23C152.96 113.05 153.35 114.33 153.7 115.78C154.05 117.23 154.39 118.51 154.59 119.37C154.684 119.866 154.804 120.357 154.95 120.84C154.933 120.336 154.873 119.834 154.77 119.34C154.66 118.7 154.42 117.34 153.97 115.71C153.52 114.08 153.07 112.77 152.84 112.16C152.69 111.688 152.499 111.229 152.27 110.79H152.28Z" fill="#C53F3F"/>
<path d="M169.88 110.32C168.368 109.204 166.919 108.006 165.54 106.73C164.09 105.534 162.708 104.259 161.4 102.91C162.912 104.026 164.361 105.224 165.74 106.5C167.187 107.699 168.569 108.974 169.88 110.32Z" fill="#C53F3F"/>
<path d="M169.87 110.34C169.72 110.34 167.53 108.49 165.53 106.74C164.4 105.74 163.34 104.81 162.53 104.09C161.31 102.96 161.34 102.92 161.36 102.9C162.868 104.024 164.316 105.226 165.7 106.5C166.83 107.5 167.89 108.43 168.7 109.15C169.92 110.28 169.89 110.32 169.87 110.34ZM161.42 102.93C161.53 103.11 163.1 104.58 165.55 106.72C168 108.86 169.66 110.22 169.86 110.3C169.75 110.12 168.19 108.66 165.73 106.51C163.27 104.36 161.62 103 161.42 102.93Z" fill="#C53F3F"/>
<path d="M175.58 95.8C174.984 95.7578 174.393 95.6709 173.81 95.54C172.72 95.36 171.22 95.13 169.55 94.94C167.88 94.75 166.36 94.63 165.26 94.56C164.664 94.5559 164.069 94.5058 163.48 94.41C164.073 94.3283 164.673 94.3082 165.27 94.35C166.38 94.35 167.91 94.44 169.59 94.63C171.021 94.7901 172.443 95.0238 173.85 95.33C174.441 95.4294 175.02 95.5868 175.58 95.8Z" fill="#C53F3F"/>
<path d="M175.53 95.82C175.4 95.82 175.04 95.76 174.16 95.62L173.81 95.56C172.32 95.31 170.89 95.11 169.55 94.95C168.21 94.79 166.77 94.68 165.26 94.58H164.91C163.7 94.5 163.46 94.48 163.47 94.43C164.067 94.3512 164.669 94.3277 165.27 94.36C166.03 94.36 167.61 94.42 169.59 94.65C171.025 94.8059 172.45 95.0395 173.86 95.35C174.451 95.4495 175.03 95.6069 175.59 95.82C175.59 95.82 175.58 95.82 175.53 95.82ZM163.53 94.41C163.63 94.41 164.19 94.48 164.93 94.53H165.28C166.8 94.62 168.28 94.75 169.57 94.9C170.86 95.05 172.35 95.26 173.83 95.51L174.18 95.57C174.89 95.69 175.42 95.77 175.56 95.77C175 95.5849 174.429 95.4347 173.85 95.32C171.027 94.7211 168.155 94.3863 165.27 94.32C164.682 94.3112 164.094 94.3413 163.51 94.41H163.53Z" fill="#C53F3F"/>
<path d="M175.6 81.52C175.6 81.6 172.44 82.45 168.5 83.41C164.56 84.37 161.35 85.08 161.33 85C161.31 84.92 164.49 84.07 168.43 83.11C172.37 82.15 175.58 81.44 175.6 81.52Z" fill="#C53F3F"/>
<path d="M161.36 85C161.36 85 161.36 84.92 163.43 84.37C164.77 84.01 166.56 83.56 168.43 83.09C170.3 82.62 172.13 82.21 173.43 81.91C175.55 81.44 175.56 81.49 175.57 81.52C175.57 81.52 175.57 81.59 173.49 82.15C172.15 82.51 170.36 82.96 168.49 83.42C166.62 83.88 164.79 84.31 163.43 84.61C162.748 84.7782 162.057 84.9084 161.36 85ZM175.57 81.51C175.28 81.51 172.57 82.1 168.43 83.1C164.29 84.1 161.62 84.83 161.36 84.97C161.65 84.97 164.36 84.38 168.5 83.37C172.64 82.36 175.31 81.66 175.57 81.53V81.51Z" fill="#C53F3F"/>
<path d="M159 64.88C159.07 64.93 157.55 67.35 155.61 70.3C153.67 73.25 152 75.59 152 75.55C152 75.51 153.45 73.07 155.4 70.13C156.512 68.3212 157.713 66.569 159 64.88Z" fill="#C53F3F"/>
<path d="M152 75.56C152 75.42 153.73 72.66 155.4 70.13C156.35 68.71 157.25 67.38 157.93 66.38C159 64.86 159.05 64.86 159.08 64.88C159.08 64.88 159.15 64.88 158.14 66.52C157.5 67.52 156.63 68.89 155.69 70.32C154.75 71.75 153.85 73.07 153.16 74.06C152.13 75.44 152 75.56 152 75.56ZM159 64.91C158.81 65.07 157.41 67.05 155.37 70.14C153.33 73.23 152.05 75.29 151.98 75.52C152.17 75.36 153.56 73.38 155.6 70.29C157.64 67.2 158.92 65.14 159 64.91Z" fill="#C53F3F"/>
<path d="M142.55 61.41C142.596 62.0759 142.596 62.7441 142.55 63.41C142.55 64.66 142.55 66.41 142.55 68.27C142.55 70.13 142.55 71.88 142.6 73.12C142.651 73.7857 142.651 74.4543 142.6 75.12C142.481 74.4596 142.414 73.7909 142.4 73.12C142.32 71.88 142.26 70.12 142.26 68.26C142.26 66.4 142.32 64.64 142.39 63.39C142.385 62.7266 142.438 62.064 142.55 61.41Z" fill="#C53F3F"/>
<path d="M142.56 75.16C142.56 75.16 142.51 75.16 142.46 74.61C142.46 74.24 142.38 73.73 142.35 73.14C142.29 72.31 142.21 70.56 142.2 68.28C142.19 66 142.28 64.28 142.33 63.41C142.33 62.82 142.41 62.31 142.45 61.94C142.5 61.41 142.53 61.39 142.54 61.39C142.54 61.39 142.6 61.58 142.54 63.39C142.54 64.56 142.54 66.39 142.54 68.25C142.54 70.11 142.54 71.79 142.59 73.02V73.1C142.59 74.95 142.59 75.1 142.59 75.1L142.56 75.16ZM142.56 61.44C142.456 62.102 142.396 62.7701 142.38 63.44C142.33 64.28 142.24 66.03 142.24 68.31C142.24 70.59 142.33 72.31 142.39 73.17C142.413 73.8395 142.473 74.5072 142.57 75.17C142.57 75 142.57 73.92 142.57 73.17V73.1C142.57 71.86 142.52 70.17 142.52 68.32C142.52 66.47 142.52 64.63 142.52 63.46C142.56 62.69 142.58 61.61 142.55 61.44H142.56Z" fill="#C53F3F"/>
<path d="M130.08 76.93C130.01 76.93 128.46 74.58 126.62 71.58C124.78 68.58 123.36 66.11 123.43 66.06C123.5 66.01 125.05 68.41 126.89 71.42C128.73 74.43 130.15 76.89 130.08 76.93Z" fill="#C53F3F"/>
<path d="M130.08 77C130.08 77 129.91 76.88 129 75.46C128.35 74.46 127.5 73.09 126.61 71.64C125.04 69.06 123.38 66.25 123.42 66.11C123.46 65.97 123.42 66.11 123.42 66.11C123.42 66.11 123.48 66.11 124.5 67.65C125.16 68.65 126 70.02 126.89 71.47C127.78 72.92 128.6 74.3 129.2 75.34C130.14 76.97 130.1 76.99 130.08 77.01V77ZM123.45 66.14C123.51 66.37 124.71 68.47 126.64 71.62C128.57 74.77 129.88 76.79 130.06 76.96C130 76.72 128.8 74.62 126.88 71.48C124.96 68.34 123.63 66.25 123.45 66.09V66.14Z" fill="#C53F3F"/>
<path d="M122.63 83.26C122.102 83.2455 121.578 83.1649 121.07 83.02C120.07 82.82 118.8 82.5 117.38 82.08C115.96 81.66 114.67 81.21 113.76 80.86C113.257 80.7024 112.774 80.4876 112.32 80.22C112.838 80.3231 113.347 80.4703 113.84 80.66C114.76 80.95 116.04 81.36 117.46 81.78C118.88 82.2 120.18 82.55 121.12 82.78C121.635 82.8992 122.14 83.0598 122.63 83.26Z" fill="#C53F3F"/>
<path d="M122.58 83.29H122.2C121.91 83.29 121.52 83.17 121.07 83.07C120.42 82.94 119.07 82.63 117.37 82.13C115.67 81.63 114.37 81.13 113.76 80.92L112.69 80.48C112.29 80.3 112.3 80.28 112.3 80.26C112.3 80.24 112.52 80.26 113.84 80.68C114.58 80.92 115.97 81.36 117.47 81.8C118.97 82.24 120.07 82.55 121.12 82.8C122.46 83.16 122.66 83.23 122.65 83.28C122.65 83.28 122.64 83.29 122.58 83.29ZM112.34 80.23C112.8 80.4724 113.278 80.6797 113.77 80.85C114.39 81.09 115.67 81.56 117.38 82.06C119.09 82.56 120.43 82.87 121.07 83C121.566 83.1226 122.071 83.2095 122.58 83.26C122.095 83.0866 121.601 82.9397 121.1 82.82C120.04 82.53 118.81 82.2 117.44 81.82C116.07 81.44 114.55 80.94 113.81 80.7C113.25 80.49 112.47 80.24 112.34 80.23Z" fill="#C53F3F"/>
<path d="M119.38 94.54C117.832 94.8486 116.265 95.0524 114.69 95.15C113.128 95.3488 111.555 95.449 109.98 95.45C111.524 95.1409 113.088 94.9371 114.66 94.84C116.225 94.6408 117.802 94.5406 119.38 94.54Z" fill="#C53F3F"/>
<path d="M392.35 153.42C392.35 153.42 391.75 153.22 390.64 152.97C389.073 152.628 387.458 152.567 385.87 152.79C383.513 153.095 381.289 154.055 379.45 155.56C377.197 157.399 375.606 159.924 374.92 162.75V162.83L374.79 163.35L374.59 162.86C373.49 160.177 371.599 157.893 369.17 156.31C367.187 155.015 364.903 154.253 362.54 154.1C360.95 153.988 359.353 154.133 357.81 154.53C356.71 154.82 356.14 155.07 356.12 155.04C356.254 154.961 356.394 154.894 356.54 154.84C356.94 154.666 357.351 154.519 357.77 154.4C359.698 153.829 361.726 153.676 363.718 153.952C365.71 154.228 367.62 154.926 369.32 156C371.818 157.607 373.762 159.942 374.89 162.69H374.56V162.61C375.258 159.709 376.897 157.122 379.22 155.25C381.115 153.729 383.398 152.769 385.81 152.48C387.425 152.28 389.063 152.382 390.64 152.78C391.07 152.881 391.491 153.015 391.9 153.18L392.35 153.42Z" fill="#263238"/>
<path d="M397.28 127.56C397.28 127.56 396.94 127.47 396.33 127.34C395.474 127.167 394.594 127.144 393.73 127.27C392.445 127.443 391.233 127.969 390.23 128.79C389.007 129.796 388.144 131.171 387.77 132.71L387.64 133.23L387.44 132.74C386.841 131.278 385.813 130.033 384.49 129.17C383.41 128.464 382.167 128.044 380.88 127.95C380.011 127.878 379.136 127.949 378.29 128.16C377.69 128.31 377.37 128.44 377.36 128.41C377.35 128.38 377.43 128.41 377.58 128.29C377.794 128.182 378.019 128.095 378.25 128.03C379.318 127.702 380.444 127.61 381.551 127.76C382.657 127.91 383.718 128.299 384.66 128.9C386.051 129.787 387.134 131.083 387.76 132.61H387.43V132.56C387.817 130.948 388.728 129.509 390.02 128.47C391.084 127.644 392.36 127.135 393.7 127C394.591 126.892 395.494 126.957 396.36 127.19C396.595 127.251 396.825 127.328 397.05 127.42C397.134 127.454 397.212 127.501 397.28 127.56Z" fill="#263238"/>
<path d="M364 109.8C363.717 110.151 363.413 110.485 363.09 110.8C359.493 114.878 357.515 120.132 357.53 125.57V125.72H357.18C356.843 123.491 356.119 121.339 355.04 119.36C354.16 117.768 353.071 116.301 351.8 115C350.928 114.116 349.977 113.312 348.96 112.6C348.24 112.1 347.82 111.85 347.83 111.82C347.944 111.853 348.052 111.904 348.15 111.97C348.36 112.09 348.67 112.24 349.04 112.49C350.095 113.166 351.077 113.95 351.97 114.83C354.961 117.765 356.922 121.589 357.56 125.73H357.21V125.58C357.181 121.367 358.383 117.238 360.67 113.7C361.356 112.627 362.142 111.623 363.02 110.7C363.32 110.37 363.59 110.15 363.75 109.98C363.91 109.81 364 109.79 364 109.8Z" fill="#263238"/>
<path d="M394.56 476.11C394.43 476.17 392.32 471.45 389.85 465.57C387.38 459.69 385.48 454.87 385.61 454.81C385.74 454.75 387.85 459.48 390.33 465.36C392.81 471.24 394.69 476.06 394.56 476.11Z" fill="#263238"/>
<path d="M399 476.14C398.85 476.14 397.89 468.48 396.84 458.99C395.79 449.5 395.06 441.8 395.2 441.79C395.34 441.78 396.31 449.45 397.36 458.94C398.41 468.43 399.17 476.12 399 476.14Z" fill="#263238"/>
<path d="M406.06 476.11C405.967 475.757 405.917 475.395 405.91 475.03C405.84 474.34 405.77 473.32 405.71 472.03C405.58 469.53 405.51 466.03 405.62 462.25C405.73 458.47 405.98 454.98 406.24 452.49C406.37 451.24 406.49 450.24 406.6 449.54C406.629 449.177 406.7 448.818 406.81 448.47C406.857 448.832 406.857 449.198 406.81 449.56C406.76 450.38 406.69 451.36 406.62 452.56C406.45 455.05 406.25 458.5 406.15 462.31C406.05 466.12 406.06 469.56 406.09 472.06C406.09 473.22 406.09 474.21 406.09 475.06C406.123 475.41 406.113 475.763 406.06 476.11Z" fill="#263238"/>
<path d="M446.39 448.39C446.48 448.39 446.28 449.96 446.15 452.49C445.974 455.774 446.051 459.067 446.38 462.34C446.736 465.611 447.338 468.85 448.18 472.03C448.83 474.47 449.35 475.96 449.27 476.03C449.073 475.719 448.918 475.382 448.81 475.03C448.54 474.37 448.2 473.4 447.81 472.18C446.834 469.005 446.164 465.743 445.81 462.44C445.468 459.14 445.438 455.815 445.72 452.51C445.84 451.25 445.97 450.22 446.09 449.51C446.152 449.128 446.253 448.752 446.39 448.39Z" fill="#263238"/>
<path d="M455.84 447C455.843 447.382 455.81 447.764 455.74 448.14C455.63 448.98 455.5 450.01 455.34 451.22C455.01 453.83 454.65 457.44 454.47 461.44C454.29 465.44 454.35 469.07 454.47 471.69C454.52 472.92 454.57 473.95 454.6 474.8C454.651 475.182 454.651 475.568 454.6 475.95C454.496 475.581 454.429 475.202 454.4 474.82C454.3 474.09 454.2 473.02 454.1 471.71C453.629 464.852 453.928 457.962 454.99 451.17C455.2 449.87 455.4 448.82 455.56 448.1C455.605 447.723 455.699 447.353 455.84 447Z" fill="#263238"/>
<path d="M471.25 446.57C471.33 446.57 470.48 448.1 469.37 450.62C467.938 453.905 466.865 457.335 466.17 460.85C465.492 464.368 465.191 467.948 465.27 471.53C465.34 474.28 465.57 475.97 465.48 475.99C465.36 475.606 465.28 475.21 465.24 474.81C465.11 474.04 464.99 472.93 464.9 471.54C464.709 467.926 464.965 464.302 465.66 460.75C466.34 457.197 467.462 453.744 469 450.47C469.464 449.478 469.978 448.51 470.54 447.57C470.737 447.21 470.975 446.874 471.25 446.57Z" fill="#263238"/>
<path d="M227.74 440.61C228.047 440.998 228.318 441.413 228.55 441.85C229.05 442.67 229.73 443.85 230.55 445.39C234.621 453.328 237.358 461.883 238.65 470.71C238.89 472.4 239.04 473.78 239.1 474.71C239.167 475.2 239.187 475.696 239.16 476.19C239.025 475.713 238.938 475.224 238.9 474.73C238.78 473.79 238.57 472.42 238.28 470.73C237.535 466.363 236.489 462.053 235.15 457.83C233.788 453.616 232.141 449.5 230.22 445.51C229.48 443.98 228.86 442.75 228.42 441.91C228.154 441.498 227.927 441.063 227.74 440.61Z" fill="#263238"/>
<path d="M242.08 436.38C242.185 436.897 242.249 437.422 242.27 437.95C242.36 439.05 242.48 440.49 242.63 442.23C242.93 445.85 243.4 450.84 244.06 456.34C244.72 461.84 245.46 466.8 246.06 470.39L246.72 474.64C246.834 475.156 246.898 475.682 246.91 476.21C246.742 475.711 246.615 475.2 246.53 474.68C246.31 473.68 246.02 472.24 245.69 470.45C245.04 466.88 244.25 461.91 243.58 456.4C242.91 450.89 242.51 445.89 242.3 442.26C242.19 440.44 242.13 438.97 242.1 437.96C242.046 437.435 242.039 436.906 242.08 436.38Z" fill="#263238"/>
<path d="M261.06 428C261.067 428.166 261.047 428.331 261 428.49C260.92 428.87 260.82 429.32 260.71 429.87C260.44 431.06 260.09 432.8 259.71 434.95C258.705 440.581 258.134 446.281 258 452C257.896 457.684 258.231 463.367 259 469C259.3 471.16 259.58 472.91 259.81 474.11C259.9 474.67 259.98 475.11 260.04 475.5C260.065 475.666 260.065 475.834 260.04 476C259.967 475.848 259.916 475.687 259.89 475.52C259.8 475.15 259.69 474.7 259.56 474.15C259.27 472.96 258.93 471.22 258.56 469.05C256.768 457.727 256.988 446.177 259.21 434.93C259.64 432.78 260.04 431.05 260.37 429.87C260.52 429.33 260.65 428.87 260.75 428.51C260.837 428.331 260.941 428.16 261.06 428Z" fill="#263238"/>
<path d="M76.66 476C76.5933 475.832 76.543 475.658 76.51 475.48C76.41 475.08 76.3 474.58 76.16 473.98C76.02 473.38 75.84 472.52 75.6 471.6C75.36 470.68 75.13 469.6 74.79 468.48C74.18 466.17 73.34 463.48 72.29 460.48C71.24 457.48 69.94 454.28 68.41 450.97C66.88 447.66 65.22 444.6 63.64 441.87C62.06 439.14 60.49 436.76 59.12 434.8C58.46 433.8 57.8 432.94 57.25 432.17C56.7 431.4 56.25 430.75 55.79 430.22L54.87 429C54.7524 428.863 54.6516 428.711 54.57 428.55C54.57 428.55 54.72 428.67 54.95 428.94L55.95 430.11C56.39 430.62 56.95 431.25 57.48 432.02C58.01 432.79 58.74 433.62 59.42 434.61C60.84 436.54 62.42 438.93 64.05 441.61C65.68 444.29 67.33 447.41 68.88 450.73C70.43 454.05 71.7 457.31 72.75 460.3C73.8 463.29 74.58 466.05 75.15 468.38C75.46 469.53 75.68 470.6 75.88 471.53C76.08 472.46 76.25 473.26 76.36 473.93C76.47 474.6 76.54 475.04 76.61 475.45C76.652 475.63 76.6689 475.815 76.66 476Z" fill="#263238"/>
<path d="M87.72 476.4C87.4884 475.858 87.2978 475.3 87.15 474.73C86.78 473.56 86.3 472.02 85.72 470.14C84.5 466.27 82.72 460.96 80.61 455.14C78.5 449.32 76.34 444.14 74.75 440.43C73.97 438.63 73.34 437.14 72.85 436.02C72.5928 435.491 72.3788 434.943 72.21 434.38C72.5226 434.877 72.8 435.395 73.04 435.93C73.55 436.93 74.25 438.43 75.04 440.28C76.71 443.98 78.9 449.15 81.04 454.96C83.18 460.77 84.88 466.13 86.04 470.03C86.6 471.98 87.04 473.56 87.31 474.66C87.4971 475.227 87.6343 475.809 87.72 476.4Z" fill="#263238"/>
<path d="M90.94 418.68C90.9636 418.873 90.9636 419.067 90.94 419.26C90.94 419.7 90.94 420.26 90.94 420.93C90.94 422.44 90.94 424.51 90.88 427.04C90.88 432.2 90.88 439.33 91.1 447.2C91.32 455.07 91.78 462.2 92.15 467.34C92.34 469.86 92.49 471.92 92.6 473.43C92.65 474.11 92.68 474.66 92.71 475.09C92.7357 475.286 92.7357 475.484 92.71 475.68C92.6605 475.49 92.6271 475.296 92.61 475.1C92.55 474.673 92.48 474.123 92.4 473.45C92.23 472.02 92.02 469.94 91.78 467.37C91.32 462.22 90.78 455.1 90.58 447.22C90.38 439.34 90.37 432.22 90.51 427.03C90.58 424.45 90.66 422.36 90.74 420.92C90.74 420.24 90.82 419.7 90.84 419.26C90.8565 419.064 90.8899 418.87 90.94 418.68Z" fill="#263238"/>
<path d="M106.74 443.14C106.7 443.579 106.61 444.012 106.47 444.43C106.23 445.35 105.93 446.52 105.58 447.9C104.84 450.83 103.89 454.9 103.06 459.44C102.23 463.98 101.69 468.12 101.34 471.12C101.19 472.54 101.05 473.74 100.95 474.68C100.933 475.123 100.866 475.562 100.75 475.99C100.711 475.551 100.711 475.109 100.75 474.67C100.75 473.82 100.85 472.6 100.98 471.09C101.23 468.09 101.72 463.9 102.55 459.35C103.38 454.8 104.39 450.72 105.22 447.81C105.64 446.35 106 445.18 106.22 444.38C106.352 443.951 106.526 443.535 106.74 443.14Z" fill="#263238"/>
<path d="M309.76 434.57C310.641 435.103 311.405 435.809 312.005 436.647C312.605 437.484 313.029 438.434 313.25 439.44C313.69 441.456 313.659 443.547 313.16 445.55C312.31 449.43 309.67 453.17 306.95 456.06C303.95 452.83 303.69 447.72 303.73 445.12C303.79 441.01 306.39 433.61 309.73 434.57" fill="#C53F3F"/>
<path d="M310.13 462.94C310.011 461.788 310.201 460.624 310.681 459.57C311.161 458.515 311.913 457.607 312.86 456.94C313.811 456.29 314.881 455.837 316.01 455.607C317.138 455.377 318.301 455.374 319.43 455.6C319.959 455.647 320.471 455.809 320.931 456.075C321.39 456.341 321.786 456.705 322.09 457.14C322.303 457.589 322.393 458.087 322.351 458.582C322.309 459.078 322.136 459.553 321.85 459.96C321.255 460.762 320.463 461.396 319.55 461.8C316.5 463.3 313.28 464.2 310.13 462.9" fill="#C53F3F"/>
<path d="M304.66 474.55C304.705 474.278 304.772 474.011 304.86 473.75L305.48 471.61C306.113 469.217 307.126 466.942 308.48 464.87C309.868 462.806 311.78 461.15 314.02 460.07C314.699 459.755 315.415 459.523 316.15 459.38C316.352 459.339 316.555 459.309 316.76 459.29C316.829 459.275 316.901 459.275 316.97 459.29C315.985 459.524 315.026 459.859 314.11 460.29C311.934 461.405 310.076 463.053 308.71 465.08C307.388 467.13 306.377 469.364 305.71 471.71C305.42 472.61 305.18 473.33 305 473.83C304.907 474.079 304.793 474.32 304.66 474.55Z" fill="#263238"/>
<path d="M308.28 440.38C308.293 440.496 308.293 440.614 308.28 440.73C308.28 441 308.28 441.33 308.28 441.73C308.28 442.61 308.16 443.89 308.05 445.47C307.83 448.63 307.46 452.99 306.95 457.79C306.44 462.59 305.88 466.94 305.43 470.07C305.2 471.64 305.01 472.9 304.87 473.77C304.79 474.19 304.74 474.52 304.69 474.77C304.677 474.889 304.651 475.007 304.61 475.12C304.597 475 304.597 474.88 304.61 474.76C304.61 474.5 304.68 474.16 304.72 473.76C304.84 472.85 305 471.58 305.2 470.04C305.59 466.9 306.12 462.56 306.64 457.76C307.16 452.96 307.54 448.61 307.81 445.46C307.95 443.91 308.06 442.64 308.14 441.72C308.14 441.31 308.21 440.97 308.23 440.72C308.234 440.605 308.25 440.491 308.28 440.38Z" fill="#263238"/>
<path d="M304.17 464.74C304.016 462.315 303.286 459.961 302.041 457.874C300.796 455.787 299.071 454.027 297.01 452.74C295.96 452.09 294.55 451.6 293.56 452.33C292.57 453.06 292.61 454.56 292.94 455.75C293.664 458.225 295.108 460.43 297.088 462.082C299.068 463.735 301.495 464.761 304.06 465.03" fill="#C53F3F"/>
<path d="M297.16 456.55C297.397 456.646 297.622 456.77 297.83 456.92C298.093 457.071 298.343 457.241 298.58 457.43C298.909 457.657 299.226 457.901 299.53 458.16C299.86 458.46 300.24 458.77 300.59 459.16C300.985 459.553 301.359 459.967 301.71 460.4C302.496 461.402 303.167 462.489 303.71 463.64C304.243 464.804 304.639 466.025 304.89 467.28C304.998 467.829 305.074 468.383 305.12 468.94C305.165 469.422 305.182 469.906 305.17 470.39C305.17 470.791 305.146 471.192 305.1 471.59C305.082 471.889 305.042 472.187 304.98 472.48C304.953 472.738 304.9 472.993 304.82 473.24C304.76 473.24 304.98 472.15 304.97 470.39C304.97 469.95 304.97 469.47 304.88 468.96C304.827 468.412 304.744 467.868 304.63 467.33C304.37 466.103 303.975 464.909 303.45 463.77C302.901 462.634 302.231 461.561 301.45 460.57C301.115 460.135 300.755 459.721 300.37 459.33C300.057 458.977 299.723 458.643 299.37 458.33C298.08 457.15 297.13 456.6 297.16 456.55Z" fill="#263238"/>
<path d="M74.76 175.07C74.19 174.54 73.38 174.01 72.7 174.38C72.02 174.75 71.99 175.55 71.99 176.26C71.99 180.5 71.9666 184.737 71.92 188.97L81.84 187.57C80.8195 182.775 78.3476 178.411 74.76 175.07Z" fill="#66433D"/>
<path d="M198.47 230.6C205.47 226.44 214.78 218.02 213.14 208.94L171.69 233.21C177.52 235.69 186.53 243.51 192.08 246.57C197.63 249.63 204.19 251.75 210.28 250C215.41 248.52 219.48 244.46 222.12 239.82C224.76 235.18 226.12 229.95 227.52 224.82C218.836 230.15 208.533 232.2 198.47 230.6Z" fill="#263238"/>
<path d="M203.18 208.51C199.628 207.977 196.163 206.968 192.88 205.51C190.09 204.317 187.003 204.003 184.03 204.61L175.21 206.4C180.293 203.264 184.058 198.383 185.8 192.67L172.8 196.47L177.11 188.99C177.11 188.99 173.24 189.4 162.46 190.99C151.68 192.58 146.31 186.16 136.18 185.77C129.87 185.53 126.63 186.83 125.09 187.85C128.2 185.15 133.42 181.13 134.98 178.29C131.43 180.1 127.13 179.12 123.39 177.74C119.65 176.36 115.88 174.56 111.9 174.84C105.38 175.3 99.9 181.25 93.37 180.53C90.96 180.26 88.7 179.07 86.28 178.96C84.8352 178.962 83.4064 179.262 82.0831 179.842C80.7598 180.422 79.5706 181.269 78.59 182.33C76.59 184.33 75.18 189 73.99 191.62L174.16 233.22C185.66 232.15 213.44 208.52 213.44 208.52C213.44 208.52 210.2 209.39 203.18 208.51Z" fill="#263238"/>
<path d="M84.16 172.54C83.74 175.05 81.33 176.74 78.93 177.59C76.53 178.44 73.93 178.76 71.72 180.01C69.6627 181.26 68.1255 183.211 67.3907 185.503C66.6559 187.796 66.7728 190.277 67.72 192.49L73.14 191.49C78.37 186.24 88 179.19 84.16 172.54Z" fill="#263238"/>
<path d="M57.58 201C55.04 200.46 53.35 197.78 53.31 195.18C53.4401 192.574 54.4806 190.097 56.25 188.18C57.91 186.18 59.94 184.53 61.73 182.64C63.6329 180.847 64.9739 178.541 65.59 176C66.46 181.18 67.33 186.47 66.44 191.65C65.55 196.83 63.21 199.21 58.35 201.19" fill="#263238"/>
<path d="M135 178.28C135 178.28 134.91 178.43 134.7 178.68C134.49 178.93 134.17 179.29 133.7 179.68C132.444 180.915 131.003 181.947 129.43 182.74C127.071 183.879 124.507 184.532 121.89 184.66C118.713 184.785 115.532 184.682 112.37 184.35C109.238 184.015 106.078 184.032 102.95 184.4C100.414 184.769 97.9826 185.661 95.81 187.02C94.3482 187.947 93.1032 189.178 92.16 190.63C91.52 191.63 91.31 192.32 91.25 192.3C91.2707 192.134 91.318 191.972 91.39 191.82C91.5562 191.372 91.7568 190.937 91.99 190.52C92.8899 188.993 94.1284 187.693 95.61 186.72C97.8022 185.274 100.283 184.322 102.88 183.93C106.042 183.524 109.24 183.491 112.41 183.83C115.549 184.156 118.706 184.276 121.86 184.19C124.422 184.083 126.939 183.478 129.27 182.41C130.83 181.659 132.274 180.689 133.56 179.53C134.52 178.76 135 178.24 135 178.28Z" fill="#455A64"/>
<path d="M171.69 191.61C171.583 191.766 171.455 191.908 171.31 192.03C170.93 192.419 170.526 192.783 170.1 193.12C168.532 194.362 166.795 195.372 164.94 196.12C162.181 197.218 159.278 197.912 156.32 198.18C152.707 198.472 149.074 198.422 145.47 198.03C141.64 197.68 138.02 197.2 134.71 196.95C131.799 196.616 128.856 196.673 125.96 197.12C124.008 197.407 122.176 198.235 120.67 199.51C120.155 200.015 119.68 200.56 119.25 201.14C119.558 200.47 119.993 199.866 120.53 199.36C122.03 197.996 123.891 197.094 125.89 196.76C128.813 196.258 131.791 196.163 134.74 196.48C138.07 196.7 141.74 197.16 145.52 197.48C149.09 197.869 152.688 197.933 156.27 197.67C159.189 197.429 162.06 196.783 164.8 195.75C166.649 195.07 168.398 194.145 170 193C171.1 192.13 171.64 191.57 171.69 191.61Z" fill="#455A64"/>
<path d="M185.8 192.65C185.709 192.823 185.602 192.987 185.48 193.14C185.157 193.594 184.803 194.025 184.42 194.43C182.995 195.903 181.408 197.212 179.69 198.33C177.167 200.027 174.46 201.433 171.62 202.52C169.93 203.182 168.15 203.587 166.34 203.72C164.415 203.775 162.488 203.712 160.57 203.53C156.64 203.18 152.93 202.59 149.57 202.41C146.573 202.192 143.56 202.397 140.62 203.02C138.641 203.447 136.743 204.19 135 205.22C133.77 205.97 133.17 206.5 133.14 206.45C133.11 206.4 133.27 206.3 133.56 206.05C133.983 205.69 134.427 205.356 134.89 205.05C136.624 203.947 138.53 203.143 140.53 202.67C143.503 201.992 146.557 201.747 149.6 201.94C153.03 202.1 156.75 202.67 160.66 203.02C162.557 203.205 164.464 203.272 166.37 203.22C168.123 203.094 169.849 202.71 171.49 202.08C174.293 201.039 176.975 199.698 179.49 198.08C181.204 196.995 182.808 195.746 184.28 194.35C185.3 193.28 185.75 192.61 185.8 192.65Z" fill="#455A64"/>
<path d="M213.14 208.94C213.042 209.097 212.924 209.242 212.79 209.37C212.442 209.765 212.068 210.136 211.67 210.48C210.186 211.757 208.495 212.771 206.67 213.48C203.982 214.503 201.152 215.104 198.28 215.26C194.781 215.409 191.276 215.319 187.79 214.99C184.329 214.671 180.847 214.634 177.38 214.88C174.559 215.126 171.796 215.828 169.2 216.96C167.46 217.738 165.862 218.799 164.47 220.1C163.47 221.04 163.05 221.66 163.01 221.62C163.088 221.453 163.189 221.298 163.31 221.16C163.616 220.738 163.95 220.337 164.31 219.96C165.671 218.572 167.274 217.443 169.04 216.63C171.654 215.423 174.454 214.669 177.32 214.4C180.816 214.128 184.329 214.155 187.82 214.48C191.284 214.798 194.764 214.898 198.24 214.78C201.066 214.65 203.858 214.098 206.52 213.14C208.322 212.481 210.009 211.543 211.52 210.36C212.6 209.48 213.09 208.9 213.14 208.94Z" fill="#455A64"/>
<path d="M83.48 173.12C83.6318 173.377 83.7399 173.658 83.8 173.95C84.0503 174.721 84.2015 175.521 84.25 176.33C84.2988 176.951 84.2192 177.574 84.0162 178.163C83.8132 178.751 83.4911 179.292 83.07 179.75C82.5227 180.248 81.8535 180.593 81.13 180.75C80.4 180.94 79.65 181.02 78.91 181.17C77.5268 181.457 76.2416 182.098 75.18 183.03C74.3118 183.793 73.5988 184.717 73.08 185.75C72.6464 186.735 72.3341 187.769 72.15 188.83C72.0899 188.536 72.0899 188.234 72.15 187.94C72.2257 187.131 72.4352 186.34 72.77 185.6C73.266 184.49 73.9841 183.492 74.88 182.67C76.0052 181.65 77.3888 180.958 78.88 180.67C80.4 180.39 81.88 180.29 82.81 179.39C83.1934 178.977 83.4915 178.492 83.6872 177.964C83.8828 177.435 83.9721 176.873 83.95 176.31C83.9355 175.526 83.845 174.746 83.68 173.98C83.5776 173.703 83.5104 173.414 83.48 173.12Z" fill="#455A64"/>
<path d="M240.31 238.03L223.13 236.91L222.35 237.91L220.22 247.75L212.45 253.6L224.77 258.59L241.14 252.97L240.31 238.03Z" fill="#263238"/>
<path d="M221.93 238.6C221.93 238.6 221.93 238.33 222.13 237.86L222.45 236.97L222.32 237.92C222.11 239.42 221.44 243.05 220.58 247.27L220.47 247.81V247.9L220.39 247.96C218.22 249.59 216.27 251.03 214.84 252.04C214.097 252.628 213.304 253.15 212.47 253.6C213.131 252.921 213.85 252.302 214.62 251.75C215.99 250.66 217.92 249.18 220.08 247.55L219.98 247.7L220.09 247.17C220.95 242.94 221.75 239.34 222.15 237.88L222.33 237.94C222.231 238.179 222.097 238.402 221.93 238.6Z" fill="#455A64"/>
<path d="M449.77 316.56C442.88 315.08 435.56 315.44 429.06 312.61C418.93 308.2 413.11 297.27 406.47 288.07C401.19 280.75 394.93 274.12 387.47 269.31C380.01 264.5 371.38 261.58 362.67 261.88L380.42 287.46C385.09 288.34 387.15 294 388.75 298.71C393.13 311.62 400.38 323.64 410.56 332.16C420.74 340.68 434 345.48 446.93 343.9C452.76 343.19 458.41 341.24 464.25 340.65C470.09 340.06 476.49 341.09 480.66 345.43C476.11 331 463.89 319.6 449.77 316.56Z" fill="#263238"/>
<path d="M376.52 332C376.52 332 369.77 351.2 396.46 369.31C396.46 369.31 405.98 373.84 406.91 376.6C407.84 379.36 406.91 383.88 409.34 391.6C411.77 399.32 420.85 419.3 423.09 423C423.57 423.8 426.67 425.93 426.67 425.93C426.201 430.194 427.426 434.47 430.08 437.84L416.73 455.27L412.36 444.49L413.75 436.83C409.18 430.33 409.18 426.98 404.42 418.18C400.11 410.18 401.31 404.33 394.59 399.01C387.87 393.69 366.78 371.27 366.78 371.27L351.66 352.77C351.66 352.77 375.37 331.69 375.55 331.99" fill="#66433D"/>
<path d="M157.9 356.1C157.9 356.1 165.39 376.48 167.9 388.64C170.41 400.8 175.08 433.7 174.81 444.21C174.595 450.714 173.381 457.146 171.21 463.28L164.86 470.75L166.37 475.75L184.42 476.02C184.42 476.02 182.55 470.5 188.35 462.21C194.15 453.92 193.88 448.66 193.88 448.66C193.88 448.66 188.63 416.32 190.29 398.9C191.95 381.48 191.12 354.67 191.12 354.67L157.9 356.1Z" fill="#66433D"/>
<path d="M371.67 462.62C371.67 462.62 380.61 412.62 381.34 408.95C382.07 405.28 369.05 378.76 367 370.06C364.95 361.36 370.49 355.74 371.77 348.39C373.05 341.04 381.44 328.86 384.16 311.55C385.13 304.249 385.13 296.851 384.16 289.55C365.7 248.64 339.16 254.71 323.71 252.2C308.26 249.69 264.27 261.48 247.58 262.26C230.89 263.04 205.75 249.68 197.49 246.2C189.23 242.72 162.82 225.88 152.91 221.2C143 216.52 109.25 197.01 96.41 194.69C83.57 192.37 70 190.12 70 190.12C70 190.12 62.88 192.65 61.56 195.73C61.09 196.85 51.47 212.73 51.47 212.73L33 246.23C33 246.23 21.7 264.07 22.36 269.45C23.02 274.83 26.36 279.31 26.58 279.89L28.58 281.74C29.466 282.566 30.5307 283.176 31.691 283.523C32.8514 283.869 34.0762 283.944 35.27 283.74C37.0635 283.388 38.8185 282.862 40.51 282.17C40.51 282.17 38.57 285.22 39.79 285.83C41.01 286.44 43.99 285.83 43.99 285.83C48.76 285.25 48.49 278.83 50.1 277.37C52.75 274.93 52.64 274.55 56.63 272.43C61.32 269.95 76.26 263.04 80.48 258.78C84.7 254.52 94.6 254.72 94.6 254.72C94.6 254.72 115.89 279.87 121.6 296.51C127.31 313.15 124.54 320.9 129.31 337.35C134.08 353.8 155.17 363.25 171.14 364.43C184.37 365.43 192.14 369.1 224.2 370.07C256.26 371.04 268.9 337.97 311.2 339.49C315.63 339.65 337.2 365.77 337.39 366.93C337.58 368.09 351.7 397.32 356.11 408.54C360.52 419.76 359.78 419.76 358.49 426.34C357.2 432.92 352.66 449.54 351.74 454.18L340.74 462.6L333.19 476H362.7C362.7 476 361.3 469.56 366.49 466.09L371.67 462.62Z" fill="#A36456"/>
<g opacity="0.8">
<path d="M374.92 444.49C373.13 454.49 371.67 462.62 371.67 462.62L366.49 466.08C361.3 469.55 362.7 475.99 362.7 475.99H333.19L340.7 462.62L351.7 454.2C352.62 449.56 357.17 432.94 358.45 426.36C359.73 419.78 360.45 419.78 356.07 408.56C356.07 408.56 363.66 408.28 364.74 414.68C365.82 421.08 367.19 435.58 369.63 436.78C372.07 437.98 374.92 444.49 374.92 444.49Z" fill="white"/>
</g>
<g opacity="0.8">
<path d="M145.59 254.41C140.72 251.94 130.14 268.04 119.48 260.12C115.745 257.323 111.722 254.933 107.48 252.99C105.329 252.012 102.967 251.592 100.611 251.769C98.2546 251.945 95.9811 252.713 94 254C94 254 115.28 279.15 121 295.79C126.72 312.43 123.94 320.18 128.71 336.62C128.71 336.62 136.71 317.62 136.47 299.27C136.23 280.92 134.82 277.72 141.06 272.46C146.67 267.71 150.47 256.89 145.59 254.41Z" fill="white"/>
</g>
<path d="M95.34 255.31C95.3978 255.362 95.4513 255.419 95.5 255.48L96 256C96.41 256.51 97 257.19 97.67 258.05C99.11 259.84 101.18 262.43 103.67 265.69C106.16 268.95 109.08 272.89 112.06 277.44C115.302 282.371 118.103 287.577 120.43 293C121.651 295.809 122.654 298.707 123.43 301.67C124.099 304.438 124.626 307.238 125.01 310.06C125.74 315.45 126.12 320.33 126.66 324.39C127.041 327.602 127.619 330.788 128.39 333.93C128.64 335.05 128.93 335.93 129.08 336.48L129.26 337.15C129.269 337.226 129.269 337.304 129.26 337.38C129.218 337.312 129.188 337.238 129.17 337.16L128.94 336.51C128.76 335.94 128.44 335.1 128.16 333.98C127.302 330.848 126.664 327.661 126.25 324.44C125.67 320.37 125.25 315.5 124.49 310.13C124.1 307.328 123.566 304.547 122.89 301.8C122.117 298.859 121.114 295.984 119.89 293.2C114.98 281.68 108.13 272.5 103.28 265.93L97.4 258.19L95.8 256.08L95.4 255.52C95.37 255.38 95.33 255.32 95.34 255.31Z" fill="#66433D"/>
<g opacity="0.8">
<path d="M48.14 218.22L29.61 251.69C29.61 251.69 38.16 249.79 41.26 246.38C44.36 242.97 51.26 238.63 51.26 238.63C52.2784 237.761 53.1055 236.69 53.689 235.485C54.2725 234.281 54.5997 232.968 54.65 231.63C54.65 229.89 55.76 225.84 54.92 223.95C53.2462 220.265 53.0459 216.078 54.36 212.25L58.24 201.25C57.75 202.31 48.14 218.22 48.14 218.22Z" fill="white"/>
</g>
<g opacity="0.2">
<path d="M91 222.25C93.75 224.65 97.36 228.56 98.83 232.25C100.352 235.976 100.671 240.084 99.74 244C99.2102 245.878 98.2529 247.609 96.9431 249.055C95.6333 250.502 94.0065 251.626 92.19 252.34C98.51 241.34 96.97 230.34 91.34 222.77" fill="black"/>
</g>
<path d="M71.92 257.68C71.92 257.62 72.7 257.94 74.13 258.23C76.153 258.617 78.2287 258.64 80.26 258.3C83.2739 257.799 86.1178 256.562 88.54 254.7C91.4723 252.363 93.6812 249.242 94.91 245.7C96.1743 242.179 96.5521 238.401 96.01 234.7C95.564 231.674 94.6071 228.746 93.18 226.04C92.2127 224.213 91.0743 222.482 89.78 220.87C88.86 219.73 88.3 219.15 88.34 219.11C88.4977 219.231 88.6449 219.364 88.78 219.51C89.06 219.78 89.45 220.19 89.94 220.75C91.3083 222.323 92.5019 224.04 93.5 225.87C95.0037 228.592 96.019 231.557 96.5 234.63C97.0783 238.42 96.7001 242.294 95.4 245.9C94.1369 249.527 91.8561 252.714 88.83 255.08C86.3385 256.97 83.4124 258.205 80.32 258.67C78.2463 258.984 76.1319 258.899 74.09 258.42C73.5357 258.291 72.9911 258.124 72.46 257.92C72.2731 257.857 72.0923 257.776 71.92 257.68Z" fill="#66433D"/>
<path d="M29.84 277.56C31.4931 275.592 32.716 273.299 33.43 270.83C33.75 268.98 32.92 266.83 31.15 266.2C30.3013 265.974 29.4005 266.05 28.6016 266.415C27.8027 266.78 27.1553 267.411 26.77 268.2C26.4133 269.001 26.2348 269.871 26.2469 270.748C26.259 271.625 26.4614 272.489 26.84 273.28C27.6055 274.857 28.6183 276.302 29.84 277.56Z" fill="#66433D"/>
<path d="M34.77 266.52C35.2186 266.897 35.5629 267.382 35.77 267.93C36.3655 269.203 36.6073 270.613 36.4701 272.012C36.3328 273.411 35.8216 274.747 34.99 275.88C34.35 276.74 33.8 277.12 33.76 277.07C33.72 277.02 34.15 276.55 34.68 275.67C35.363 274.555 35.7867 273.301 35.92 272C36.041 270.681 35.8633 269.351 35.4 268.11C35.1619 267.592 34.9516 267.061 34.77 266.52Z" fill="#66433D"/>
<path d="M58.54 222.17C59.54 223.68 60.84 225.78 62.63 225.39C63.5221 225.177 64.3337 224.71 64.967 224.047C65.6004 223.383 66.0285 222.551 66.2 221.65C65.2 221.37 64.27 220.9 63.28 220.6C62.3124 220.24 61.2476 220.24 60.28 220.6C59.8987 220.712 59.5477 220.908 59.2533 221.175C58.9588 221.442 58.7286 221.772 58.58 222.14" fill="white"/>
<path d="M64.47 220.89C64.6841 221.758 64.6565 222.667 64.39 223.52C64.2671 224.002 64.0165 224.443 63.6645 224.795C63.3126 225.146 62.8723 225.397 62.39 225.52C61.6337 225.749 60.8264 225.749 60.07 225.52C59.6921 225.398 59.343 225.2 59.0439 224.939C58.7447 224.677 58.5019 224.358 58.33 224C58.0128 223.269 57.9772 222.446 58.23 221.69C58.4932 221.28 58.8442 220.934 59.2575 220.676C59.6708 220.419 60.1362 220.256 60.62 220.2C61.9433 220.044 63.2831 220.284 64.47 220.89Z" fill="#263238"/>
<path d="M65.91 198.09C65.91 198.09 60.42 193.26 58.91 189.4C57.4 185.54 56.81 177.7 56.01 175.77C55.21 173.84 57.24 172.55 58.91 174.16C60.58 175.77 74.11 193.05 74.11 193.05L65.91 198.09Z" fill="#A36456"/>
<path d="M66.54 196.27C65.9608 188.167 62.6708 180.495 57.2 174.49C57.7002 178.558 58.5602 182.574 59.77 186.49C60.9902 190.424 63.354 193.905 66.56 196.49" fill="#66433D"/>
<path d="M67.82 222.3C67.0399 222.184 66.2876 221.926 65.6 221.54C64.8496 221.183 64.0781 220.873 63.29 220.61C62.3503 220.302 61.3449 220.254 60.38 220.47C59.4426 220.762 58.6454 221.388 58.14 222.23C57.6943 222.931 57.3064 223.666 56.98 224.43C56.7171 225.172 56.3053 225.853 55.77 226.43C55.72 226.43 56.15 225.63 56.64 224.28C56.9302 223.473 57.2986 222.696 57.74 221.96C58.2919 221.002 59.1846 220.288 60.24 219.96C61.2985 219.712 62.406 219.775 63.43 220.14C64.2324 220.434 65.0114 220.788 65.76 221.2C67 221.9 67.84 222.23 67.82 222.3Z" fill="#263238"/>
<path d="M123.87 264C123.975 264.114 124.069 264.238 124.15 264.37C124.32 264.63 124.58 264.99 124.87 265.49C125.704 266.886 126.446 268.336 127.09 269.83C129.178 274.786 130.526 280.022 131.09 285.37C131.646 290.704 131.814 296.072 131.59 301.43C131.53 303.43 131.45 305.14 131.38 306.29C131.373 306.886 131.322 307.481 131.23 308.07C131.167 307.476 131.15 306.877 131.18 306.28C131.18 305.05 131.18 303.41 131.23 301.42C131.335 296.078 131.114 290.735 130.57 285.42C130.013 280.118 128.735 274.916 126.77 269.96C125.99 268.07 125.25 266.59 124.71 265.58C124.392 265.074 124.112 264.546 123.87 264Z" fill="#66433D"/>
<path d="M67 220.68C66.4543 220.358 65.9418 219.983 65.47 219.56C64.3443 218.599 62.9855 217.95 61.53 217.68C60.7586 217.548 59.9652 217.682 59.28 218.06C58.7511 218.444 58.2941 218.918 57.93 219.46C57.25 220.41 56.71 220.94 56.66 220.88C56.9527 220.313 57.2869 219.768 57.66 219.25C58.014 218.631 58.4903 218.09 59.06 217.66C59.8315 217.188 60.749 217.013 61.64 217.17C63.1927 217.439 64.6264 218.175 65.75 219.28C66.2407 219.675 66.663 220.148 67 220.68Z" fill="#263238"/>
<path d="M47.2 272.8C46.324 274.524 45.2967 276.167 44.13 277.71C43.1106 279.351 41.9424 280.894 40.64 282.32C41.51 280.595 42.5342 278.951 43.7 277.41C44.7239 275.77 45.8954 274.227 47.2 272.8Z" fill="#66433D"/>
<path d="M76.41 195.22C76.41 195.27 75.86 194.9 75.15 194.22C74.2415 193.271 73.39 192.27 72.6 191.22C71.4431 189.79 70.3649 188.297 69.37 186.75C69.5 186.63 71.18 188.47 73.01 190.9C73.94 192.1 74.79 193.18 75.42 193.9C76.05 194.62 76.46 195.16 76.41 195.22Z" fill="#66433D"/>
<path d="M301.65 309.25C301.724 309.422 301.774 309.604 301.8 309.79C301.89 310.21 302 310.73 302.13 311.37C302.41 312.74 302.82 314.72 303.44 317.13C304.7 321.93 306.65 328.66 310.89 334.99C314.526 340.374 318.614 345.439 323.11 350.13C324.84 351.94 326.27 353.36 327.28 354.32C327.75 354.77 328.14 355.14 328.44 355.44C328.584 355.563 328.714 355.7 328.83 355.85C328.662 355.758 328.507 355.644 328.37 355.51C328.09 355.28 327.67 354.94 327.15 354.51C326.09 353.59 324.61 352.21 322.85 350.43C318.249 345.795 314.1 340.733 310.46 335.31C308.465 332.307 306.834 329.078 305.6 325.69C304.586 322.935 303.744 320.12 303.08 317.26C302.51 314.82 302.14 312.83 301.93 311.45C301.81 310.76 301.75 310.22 301.7 309.85C301.663 309.652 301.646 309.451 301.65 309.25Z" fill="#66433D"/>
<path d="M284.65 336.65C284.342 336.897 284.006 337.109 283.65 337.28C282.99 337.65 282.04 338.2 280.88 338.91C274.865 342.582 269.465 347.178 264.88 352.53C263.99 353.53 263.29 354.4 262.82 355C262.594 355.322 262.332 355.617 262.04 355.88C262.207 355.524 262.415 355.188 262.66 354.88C263.08 354.24 263.74 353.36 264.59 352.3C266.825 349.538 269.312 346.99 272.02 344.69C274.733 342.393 277.652 340.351 280.74 338.59C281.92 337.92 282.9 337.42 283.59 337.1C283.926 336.911 284.281 336.76 284.65 336.65Z" fill="#66433D"/>
<path d="M377 413.52C376.867 413.901 376.692 414.267 376.48 414.61C376.12 415.29 375.61 416.29 375.01 417.53C373.425 420.757 372.087 424.1 371.01 427.53C369.962 430.968 369.183 434.482 368.68 438.04C368.48 439.4 368.34 440.51 368.26 441.28C368.242 441.682 368.182 442.081 368.08 442.47C368.033 442.071 368.033 441.669 368.08 441.27C368.08 440.49 368.18 439.37 368.33 437.99C368.741 434.39 369.481 430.835 370.54 427.37C371.601 423.917 372.981 420.569 374.66 417.37C375.31 416.14 375.87 415.17 376.29 414.51C376.488 414.154 376.726 413.821 377 413.52Z" fill="#66433D"/>
<path d="M374.12 326.44C374.04 326.44 374.59 325.12 375.28 322.99C377.087 317.424 377.727 311.545 377.16 305.72C376.95 303.49 376.68 302.12 376.77 302.11C376.904 302.41 376.998 302.726 377.05 303.05C377.2 303.66 377.37 304.56 377.53 305.68C378.306 311.558 377.654 317.537 375.63 323.11C375.24 324.17 374.88 325.01 374.63 325.58C374.498 325.887 374.326 326.176 374.12 326.44Z" fill="#66433D"/>
<g opacity="0.2">
<path d="M301.5 308.23C299.09 314.02 300.09 320.84 302.91 326.47C305.73 332.1 310.29 336.83 314.91 341.17C307.775 331.473 303.166 320.153 301.5 308.23Z" fill="black"/>
</g>
<path d="M31 249.43C31 249.43 58.23 255.99 63.47 271.73L67.19 269.47C67.19 269.47 57.79 251.06 32.82 246.37L31 249.43Z" fill="#455A64"/>
<path d="M84.22 212.75C83.15 213.46 53.73 259.05 53.73 259.05L57.2 260.7L88.35 215.41L84.22 212.75Z" fill="#455A64"/>
<path d="M59.75 264.49C59.75 264.49 122.2 242.65 132.11 239.87C142.02 237.09 195.62 222.65 195.62 222.65L206.44 228.78C195.61 224.54 146.51 239.66 136.27 243.45C125.82 247.33 63.9 267.11 63.9 267.11L59.75 264.49Z" fill="#455A64"/>
<path d="M88.35 216.05C87.3215 216.05 86.3162 215.745 85.461 215.174C84.6059 214.602 83.9394 213.79 83.5458 212.84C83.1522 211.89 83.0493 210.844 83.2499 209.836C83.4506 208.827 83.9458 207.9 84.673 207.173C85.4003 206.446 86.3268 205.951 87.3355 205.75C88.3442 205.549 89.3898 205.652 90.3399 206.046C91.2901 206.439 92.1023 207.106 92.6736 207.961C93.245 208.816 93.55 209.822 93.55 210.85C93.5474 212.228 92.9986 213.549 92.024 214.524C91.0494 215.499 89.7283 216.047 88.35 216.05ZM88.35 206.65C87.5193 206.65 86.7073 206.896 86.0166 207.358C85.3259 207.819 84.7876 208.475 84.4697 209.243C84.1518 210.01 84.0686 210.855 84.2307 211.669C84.3928 212.484 84.7928 213.232 85.3801 213.82C85.9675 214.407 86.7159 214.807 87.5306 214.969C88.3453 215.131 89.1898 215.048 89.9573 214.73C90.7247 214.412 91.3807 213.874 91.8422 213.183C92.3037 212.493 92.55 211.681 92.55 210.85C92.55 209.736 92.1075 208.668 91.3198 207.88C90.5322 207.093 89.4639 206.65 88.35 206.65Z" fill="#455A64"/>
<path d="M87.34 206.15L86.02 192.9L90.43 193.68L91.29 207.19L87.34 206.15Z" fill="#455A64"/>
<path d="M202.72 232.48C204.778 235.073 206.066 238.191 206.44 241.48C206.879 244.493 207.083 247.535 207.05 250.58L210.95 252.33C210.95 252.33 210.11 236.05 207.75 233.22C205.39 230.39 204.84 231.22 204.84 231.22L202.72 232.48Z" fill="#455A64"/>
<path d="M71.37 203.15C70.7308 202.991 70.1248 202.72 69.58 202.35C68.2127 201.566 66.9408 200.627 65.79 199.55C64.6358 198.471 63.609 197.263 62.73 195.95C62.3306 195.428 62.0198 194.843 61.81 194.22C63.1585 195.954 64.6076 197.606 66.15 199.17C67.8084 200.6 69.5516 201.929 71.37 203.15Z" fill="#66433D"/>
<path d="M161.25 268.43C159.879 267.595 158.602 266.616 157.44 265.51C156.168 264.534 155.008 263.42 153.98 262.19C155.346 263.026 156.62 264.005 157.78 265.11C159.05 266.091 160.214 267.204 161.25 268.43Z" fill="#66433D"/>
<path d="M164.11 268.43C161.463 266.622 159.022 264.53 156.83 262.19C158.203 263.021 159.48 264.001 160.64 265.11C161.91 266.091 163.074 267.204 164.11 268.43Z" fill="#66433D"/>
<path d="M174.24 267.13C172.166 266.629 170.136 265.96 168.17 265.13C166.145 264.476 164.178 263.653 162.29 262.67C164.36 263.175 166.386 263.844 168.35 264.67C170.377 265.328 172.347 266.15 174.24 267.13Z" fill="#66433D"/>
<path d="M348.09 293.85C347.95 293.92 346.98 292.07 345.31 290.15C343.64 288.23 341.97 286.98 342.06 286.85C344.835 288.388 346.965 290.872 348.06 293.85H348.09Z" fill="#66433D"/>
<path d="M348.81 291.29C347.973 290.697 347.245 289.962 346.66 289.12C345.938 288.389 345.346 287.54 344.91 286.61C346.469 287.934 347.788 289.518 348.81 291.29Z" fill="#66433D"/>
<path d="M352.69 294.93C352.356 292.79 351.709 290.711 350.77 288.76C349.688 286.886 348.341 285.178 346.77 283.69C347.37 283.952 347.911 284.333 348.36 284.81C350.705 286.948 352.23 289.838 352.67 292.98C352.808 293.622 352.815 294.285 352.69 294.93Z" fill="#66433D"/>
<path d="M364.7 467.66C355.65 467.39 346.78 466.56 337.81 467.77L333.19 476H362.7C362.3 470.34 364.7 467.66 364.7 467.66Z" fill="#263238"/>
<g opacity="0.8">
<path d="M363 303.51C360.28 300.73 355.49 301.09 352.26 303.24C349.03 305.39 347.64 306.65 345.7 310.03C343.54 312.74 344.07 316.63 344.7 320.03L347 332C347.49 334.6 348.34 337.63 350.84 338.49C353.6 339.43 356.44 336.89 357.36 334.13C358.28 331.37 358 328.34 358.65 325.51C359.54 321.63 362.08 318.37 363.65 314.75C365.22 311.13 365.81 306.35 363 303.51Z" fill="white"/>
</g>
<path d="M58.23 201.19C58.35 201.26 51.88 212.94 43.78 227.28C35.68 241.62 29 253.19 28.88 253.12C28.76 253.05 35.22 241.37 43.33 227.02C51.44 212.67 58.1 201.12 58.23 201.19Z" fill="#66433D"/>
<path d="M138.1 419.38C137.85 416.28 133.41 409.8 127.86 402.52C125.86 399.61 123.7 396.3 124.53 392.84C125.09 390.48 125.63 390.44 127.4 388.77C140.73 376.22 152.02 362.77 173.8 358.47L139.29 327.85C141.73 345.76 123.37 359.31 113.55 370.07C108.96 375.07 103.91 380.36 102.91 387.07C102.1 392.49 103.71 396.86 106.69 401.47C112.56 410.55 116.63 419.03 122.12 428.1C124.39 434.1 125.96 439.53 125.45 442.15L129.96 450.09C129.96 450.09 136.51 445.62 140.42 442.39L143.93 432.71L139.82 428.2C139.061 425.299 138.486 422.353 138.1 419.38Z" fill="#A36456"/>
<g opacity="0.8">
<path d="M139.88 428.22C139.12 425.312 138.542 422.36 138.15 419.38C137.7 419.66 130.78 413.7 125.37 409.27C119.96 404.84 106.74 401.49 106.74 401.49C112.62 410.57 116.68 419.05 122.17 428.12C124.45 434.12 126.02 439.55 125.5 442.17L130.02 450.11C130.02 450.11 136.57 445.64 140.48 442.41L143.99 432.73L139.88 428.22Z" fill="white"/>
</g>
<path d="M120 382.34C120.505 382.831 120.93 383.398 121.26 384.02C122.139 385.46 122.856 386.993 123.4 388.59C123.94 390.192 124.299 391.849 124.47 393.53C124.577 394.223 124.577 394.927 124.47 395.62C124.079 393.303 123.548 391.013 122.88 388.76C122.053 386.563 121.092 384.418 120 382.34Z" fill="#66433D"/>
<path d="M125.45 442.17C131.45 439.38 138.24 434.65 139.82 428.22L144.16 432.84L140.48 442.41C138.14 444.51 134.18 447.34 130.05 450.25L125.45 442.17Z" fill="#263238"/>
<path d="M130.41 423.89C129.42 422.683 128.793 421.221 128.6 419.673C128.407 418.124 128.657 416.553 129.32 415.14C129.087 416.618 129.016 418.117 129.11 419.61C129.382 421.081 129.818 422.516 130.41 423.89Z" fill="#66433D"/>
<path d="M125.81 442.26C125.584 441.714 125.397 441.152 125.25 440.58C124.93 439.49 124.44 437.91 123.79 435.99C122.112 430.965 120.107 426.054 117.79 421.29C115.454 416.535 112.816 411.936 109.89 407.52C108.76 405.82 107.83 404.52 107.17 403.52C106.799 403.057 106.465 402.565 106.17 402.05C106.583 402.471 106.964 402.922 107.31 403.4C108.02 404.29 109.01 405.62 110.17 407.29C113.202 411.664 115.9 416.26 118.24 421.04C120.569 425.822 122.534 430.773 124.12 435.85C124.72 437.8 125.12 439.39 125.43 440.5C125.609 441.074 125.736 441.663 125.81 442.26Z" fill="#66433D"/>
<path d="M137.61 417.22C138.215 419.034 138.657 420.898 138.93 422.79C139.371 424.655 139.645 426.556 139.75 428.47C138.693 424.794 137.976 421.028 137.61 417.22Z" fill="#66433D"/>
<path d="M374.92 442.49C374.93 442.902 374.896 443.315 374.82 443.72C374.7 444.61 374.55 445.72 374.37 447.03C373.97 449.83 373.37 453.68 372.69 457.93L371.92 462.66V462.79L371.79 462.85C369.385 463.756 367.205 465.172 365.4 467C364.886 467.536 364.414 468.111 363.99 468.72C363.856 468.954 363.706 469.178 363.54 469.39C363.591 469.121 363.696 468.866 363.85 468.64C364.223 467.978 364.665 467.358 365.17 466.79C366.936 464.841 369.13 463.328 371.58 462.37L371.43 462.56C371.66 461.08 371.92 459.49 372.18 457.83C372.86 453.58 373.51 449.73 374.01 446.95C374.25 445.65 374.46 444.55 374.62 443.67C374.675 443.267 374.776 442.871 374.92 442.49Z" fill="#66433D"/>
<path d="M194.32 328.78C194.222 328.953 194.104 329.114 193.97 329.26L192.87 330.59C191.87 331.74 190.53 333.4 188.87 335.51C184.593 340.995 180.694 346.765 177.2 352.78C176.05 354.78 174.98 356.72 173.99 358.59L173.94 358.69H173.83C168.583 360.162 163.442 361.986 158.44 364.15C156.57 364.97 155.1 365.66 154.1 366.15C153.594 366.431 153.073 366.684 152.54 366.91C152.54 366.91 152.66 366.81 152.9 366.65C153.14 366.49 153.52 366.26 154.02 366C155.02 365.44 156.45 364.7 158.31 363.84C163.29 361.57 168.434 359.681 173.7 358.19L173.54 358.32C174.54 356.44 175.59 354.47 176.75 352.48C180.253 346.443 184.207 340.68 188.58 335.24C190.25 333.15 191.69 331.53 192.68 330.41L193.86 329.15C194.16 328.91 194.31 328.76 194.32 328.78Z" fill="#66433D"/>
<path d="M150.12 296.92C149.7 297.348 149.256 297.752 148.79 298.13C147.567 299.215 146.411 300.374 145.33 301.6C141.742 305.62 139.053 310.36 137.444 315.502C135.835 320.645 135.343 326.072 136 331.42C136.183 333.043 136.467 334.653 136.85 336.24C137.019 336.814 137.149 337.399 137.24 337.99C137.16 337.856 137.099 337.711 137.06 337.56C136.96 337.27 136.8 336.85 136.65 336.29C136.201 334.71 135.866 333.099 135.65 331.47C134.899 326.061 135.36 320.552 136.999 315.343C138.639 310.134 141.416 305.354 145.13 301.35C146.241 300.135 147.445 299.009 148.73 297.98C149.17 297.6 149.55 297.35 149.79 297.17C149.889 297.073 150 296.99 150.12 296.92Z" fill="#66433D"/>
<path d="M359.33 421.47C359.323 421.652 359.299 421.832 359.26 422.01C359.18 422.41 359.08 422.91 358.96 423.53L357.79 429.1C356.73 433.87 355.29 440.33 353.71 447.46C353.392 449.241 352.879 450.981 352.18 452.65C351.433 454.18 350.382 455.541 349.09 456.65C346.916 458.458 344.598 460.087 342.16 461.52C340.668 462.671 339.491 464.182 338.74 465.91L338.07 467.3C337.998 467.468 337.911 467.628 337.81 467.78C337.839 467.6 337.892 467.425 337.97 467.26C338.09 466.93 338.28 466.44 338.56 465.82C339.257 464.016 340.424 462.431 341.94 461.23C344.33 459.754 346.609 458.106 348.76 456.3C350.011 455.23 351.032 453.916 351.76 452.44C352.433 450.804 352.929 449.101 353.24 447.36C354.88 440.24 356.37 433.79 357.47 429.04C358.02 426.75 358.47 424.88 358.81 423.49C358.963 422.89 359.093 422.39 359.2 421.99C359.215 421.811 359.259 421.635 359.33 421.47Z" fill="#66433D"/>
<g opacity="0.2">
<path d="M316.7 296.94C313.7 296.78 310.78 297.66 307.89 298.43C296.659 301.39 285.041 302.61 273.44 302.05C267.84 301.78 262.12 301.1 256.68 302.48C251.24 303.86 246.02 307.92 245.27 313.48L246.84 314.82C251.21 317.28 256.69 316.61 261.42 314.95C266.15 313.29 270.56 310.72 275.42 309.44C283.65 307.26 292.33 308.98 300.83 309.32C309.33 309.66 318.83 308.06 324.04 301.32C322.81 298.57 319.69 297.1 316.7 296.94Z" fill="black"/>
</g>
<path d="M301.16 252.13C305.659 268.278 312.81 283.566 322.32 297.37C313.22 305.42 300.32 306.13 288.46 305.96C276.6 305.79 263.95 305.33 253.77 311.77C250.9 313.58 247.97 316.01 244.64 315.64C241.85 315.32 239.64 313.1 237.74 310.91C229.09 300.91 217.1 276.68 225.45 258.07C225.45 258.07 240.45 258.07 247.25 258.62C254.05 259.17 301.16 252.13 301.16 252.13Z" fill="#455A64"/>
<g opacity="0.2">
<path d="M265.31 268.16C263.97 266.16 260.86 266.9 258.64 267.88L234.14 278.69C227.26 281.69 219.82 285.3 216.69 292.14C214.89 296.06 214.8 300.53 214.81 304.85L218 353L228.57 367.44C229.856 351.157 229.993 334.803 228.98 318.5C228.58 312.02 228.06 305.19 230.98 299.38C233.66 294.01 238.83 290.38 243.8 287.04L262 274.68C264.29 273.16 266.82 270.42 265.31 268.16Z" fill="black"/>
</g>
<path d="M234.87 238.3L265 228.43L265.49 236.43C270.29 242.89 274.87 254.99 269.58 266.31C263.53 279.24 225.4 291.65 224.81 295.77C224.22 299.89 226.62 345.77 225.17 345.77C223.72 345.77 205.4 347.53 205.4 347.53C205.4 347.53 191.65 301 194 286.88C196.35 272.76 230.48 253.88 230.48 253.88L235.58 249.22L234.87 238.3Z" fill="#263238"/>
<path d="M202.14 336.18L208.14 359.85C208.14 359.85 194.42 370.79 193.78 372.4C192.91 374.54 194.78 377.12 198.96 376.07C202.42 375.2 220.35 371.13 226.52 369.73C227.084 369.6 227.578 369.26 227.899 368.779C228.221 368.297 228.346 367.711 228.25 367.14L226.37 355.85L226.69 333.05L202.14 336.18Z" fill="#455A64"/>
<path d="M256 249.29C256 249.39 254.49 248.79 252 248.37C250.536 248.124 249.054 248 247.57 248C245.757 248.009 243.95 248.186 242.17 248.53C238.924 249.155 235.815 250.354 232.99 252.07C230.83 253.41 229.67 254.49 229.6 254.41C229.834 254.123 230.096 253.858 230.38 253.62C231.132 252.936 231.938 252.314 232.79 251.76C235.609 249.919 238.762 248.648 242.07 248.02C243.885 247.67 245.731 247.503 247.58 247.52C249.089 247.54 250.592 247.704 252.07 248.01C252.638 248.111 253.199 248.248 253.75 248.42C254.174 248.533 254.592 248.67 255 248.83C255.355 248.932 255.692 249.087 256 249.29Z" fill="#455A64"/>
<path d="M292 170.91C293.981 169.061 295.272 166.592 295.66 163.91C292.392 164.591 288.989 164.087 286.058 162.49C283.127 160.893 280.859 158.305 279.66 155.19C278.53 151.96 278.33 147.9 275.39 146.19C273.28 144.93 270.55 145.45 268.22 144.65C265.32 143.65 263.53 140.83 261.1 138.96C258.728 137.241 255.828 136.408 252.905 136.605C249.982 136.802 247.22 138.018 245.1 140.04L260.48 181.26C263.453 183.472 266.885 184.988 270.523 185.696C274.16 186.404 277.91 186.287 281.496 185.352C285.082 184.417 288.413 182.689 291.241 180.295C294.07 177.901 296.325 174.902 297.84 171.52C295.872 171.672 293.894 171.465 292 170.91Z" fill="#263238"/>
<path d="M235 119.36C231.46 115.95 226.27 119.28 224.42 123.12C222.57 126.96 222.42 132.31 222.59 136.57C222.78 141.45 222.59 146.79 224.84 151.14C226.17 153.737 228.026 156.028 230.29 157.867C232.555 159.707 235.178 161.054 237.992 161.824C240.806 162.593 243.749 162.768 246.635 162.337C249.52 161.906 252.284 160.879 254.75 159.32L235 119.36Z" fill="#263238"/>
<path d="M252.45 166L254.45 128.81C254.487 128.019 254.226 127.244 253.719 126.637C253.211 126.029 252.494 125.634 251.71 125.53L235.09 120.82C229.74 120.1 225.99 126.6 225.49 131.98C224.95 137.98 224.49 145.26 225.1 149.74C226.27 158.74 233.1 160.09 233.1 160.09L233 165.23L232.73 171.11L252.45 166Z" fill="#FFBE9D"/>
<path d="M227.84 139.81C227.829 140.111 227.935 140.405 228.137 140.629C228.339 140.853 228.619 140.989 228.92 141.01C229.065 141.025 229.212 141.011 229.352 140.969C229.492 140.927 229.622 140.857 229.735 140.764C229.847 140.671 229.94 140.556 230.008 140.427C230.076 140.297 230.118 140.156 230.13 140.01C230.141 139.712 230.036 139.42 229.836 139.198C229.636 138.976 229.358 138.841 229.06 138.82C228.915 138.803 228.767 138.816 228.627 138.857C228.487 138.898 228.356 138.967 228.242 139.059C228.128 139.151 228.034 139.265 227.965 139.394C227.896 139.523 227.854 139.664 227.84 139.81Z" fill="#263238"/>
<path d="M227 135.87C227.14 136.02 228 135.4 229.27 135.44C230.54 135.48 231.4 136.12 231.54 135.98C231.68 135.84 231.47 135.64 231.08 135.34C230.555 134.951 229.923 134.735 229.27 134.72C228.625 134.697 227.991 134.883 227.46 135.25C227.07 135.53 226.93 135.8 227 135.87Z" fill="#263238"/>
<path d="M239.29 139.81C239.279 140.109 239.384 140.402 239.583 140.625C239.783 140.849 240.061 140.987 240.36 141.01C240.506 141.025 240.653 141.011 240.794 140.969C240.934 140.927 241.065 140.857 241.179 140.764C241.292 140.671 241.386 140.557 241.455 140.427C241.524 140.298 241.566 140.156 241.58 140.01C241.588 139.711 241.481 139.419 241.279 139.198C241.078 138.976 240.799 138.841 240.5 138.82C240.355 138.805 240.209 138.818 240.07 138.86C239.931 138.902 239.801 138.971 239.689 139.063C239.576 139.155 239.483 139.268 239.414 139.396C239.346 139.525 239.304 139.665 239.29 139.81Z" fill="#263238"/>
<path d="M239.17 136.44C239.31 136.6 240.17 135.98 241.43 136.02C242.69 136.06 243.56 136.7 243.7 136.55C243.84 136.4 243.63 136.21 243.24 135.91C242.713 135.527 242.081 135.314 241.43 135.3C240.785 135.277 240.151 135.463 239.62 135.83C239.24 136.11 239.1 136.38 239.17 136.44Z" fill="#263238"/>
<path d="M234.41 145.5C233.764 145.274 233.092 145.133 232.41 145.08C232.1 145.08 231.8 144.97 231.75 144.75C231.734 144.423 231.818 144.099 231.99 143.82L232.99 141.44C233.919 139.426 234.681 137.339 235.27 135.2C234.19 137.124 233.263 139.13 232.5 141.2L231.5 143.6C231.288 143.973 231.217 144.409 231.3 144.83C231.344 144.943 231.412 145.045 231.5 145.128C231.589 145.211 231.694 145.273 231.81 145.31C231.981 145.365 232.16 145.395 232.34 145.4C233.023 145.52 233.719 145.554 234.41 145.5Z" fill="#263238"/>
<path d="M233.14 160.13C237.365 160.314 241.557 159.32 245.25 157.26C245.25 157.26 242.05 163.57 233.09 162.48L233.14 160.13Z" fill="#EB996E"/>
<path d="M234.51 148.45C234.802 148.05 235.186 147.726 235.63 147.507C236.074 147.287 236.565 147.179 237.06 147.19C237.382 147.205 237.695 147.297 237.974 147.459C238.253 147.621 238.488 147.848 238.66 148.12C238.85 148.437 238.938 148.804 238.914 149.172C238.891 149.541 238.755 149.893 238.526 150.183C238.297 150.473 237.986 150.686 237.633 150.794C237.28 150.903 236.902 150.901 236.55 150.79C235.867 150.546 235.253 150.141 234.76 149.61C234.599 149.481 234.469 149.317 234.38 149.13C234.335 149.03 234.317 148.921 234.328 148.812C234.339 148.703 234.377 148.599 234.44 148.51" fill="#EB996E"/>
<path d="M238 146.46C237.8 146.46 237.76 147.79 236.58 148.71C235.4 149.63 233.98 149.44 233.96 149.63C233.94 149.82 234.28 149.9 234.88 149.93C235.665 149.964 236.437 149.719 237.06 149.24C237.661 148.777 238.058 148.1 238.17 147.35C238.27 146.79 238.12 146.45 238 146.46Z" fill="#263238"/>
<path d="M238.77 131.33C238.88 131.67 240.12 131.55 241.57 131.76C243.02 131.97 244.18 132.41 244.38 132.11C244.47 131.97 244.27 131.65 243.81 131.31C243.193 130.884 242.483 130.613 241.74 130.52C240.999 130.408 240.241 130.473 239.53 130.71C239 130.91 238.72 131.17 238.77 131.33Z" fill="#263238"/>
<path d="M227.56 131.62C227.77 131.91 228.63 131.62 229.66 131.62C230.69 131.62 231.55 131.87 231.75 131.62C231.95 131.37 231.75 131.19 231.35 130.92C230.849 130.588 230.261 130.411 229.66 130.411C229.059 130.411 228.471 130.588 227.97 130.92C227.6 131.19 227.47 131.48 227.56 131.62Z" fill="#263238"/>
<path d="M251.27 141.35C251.37 139.43 253.72 139.02 255.38 139.98C256.3 140.51 257 141.57 256.92 143.61C256.69 149.06 251.27 147.71 251.27 147.55C251.27 147.39 251.16 143.6 251.27 141.35Z" fill="#FFBE9D"/>
<path d="M253 145.56C253 145.56 253.09 145.63 253.25 145.71C253.361 145.757 253.48 145.781 253.6 145.781C253.72 145.781 253.839 145.757 253.95 145.71C254.313 145.503 254.613 145.203 254.821 144.841C255.028 144.479 255.135 144.067 255.13 143.65C255.161 143.187 255.09 142.722 254.92 142.29C254.876 142.116 254.79 141.956 254.67 141.824C254.55 141.691 254.399 141.59 254.23 141.53C254.123 141.498 254.008 141.503 253.904 141.545C253.801 141.586 253.715 141.662 253.66 141.76C253.624 141.846 253.601 141.937 253.59 142.03C253.59 142.03 253.47 141.94 253.53 141.71C253.562 141.578 253.64 141.461 253.75 141.38C253.905 141.273 254.094 141.23 254.28 141.26C254.51 141.309 254.723 141.416 254.898 141.572C255.073 141.728 255.205 141.928 255.28 142.15C255.491 142.631 255.583 143.156 255.55 143.68C255.555 144.165 255.418 144.641 255.155 145.048C254.891 145.455 254.514 145.776 254.07 145.97C253.921 146.009 253.765 146.013 253.614 145.982C253.463 145.951 253.321 145.885 253.2 145.79C253 145.69 253 145.57 253 145.56Z" fill="#EB996E"/>
<path d="M256.72 121.93C253.96 118.56 249.24 115.29 244.95 114.5C240.66 113.71 233.28 111.91 231.95 118.17L232.3 118.82C232.951 120.704 234.017 122.418 235.419 123.836C236.821 125.253 238.523 126.338 240.4 127.01C242.22 127.64 244.32 128.01 245.5 129.49C246.36 130.6 246.5 132.07 246.99 133.38C247.99 136.02 249.51 142.38 252.14 143.38C254.77 144.38 258.2 141.03 261 141.25C261 135.76 260.24 126.2 256.72 121.93Z" fill="#263238"/>
<path d="M225.05 224.51C225.05 224.51 218.05 241.66 220.85 242.01C223.65 242.36 251.15 244.77 258.45 239.91C265.75 235.05 268.66 229.21 273.04 229.69C275.476 230.034 277.96 229.641 280.17 228.56C280.17 228.56 267.28 223.78 266.17 217.84C265.06 211.9 267.71 192.09 267.71 192.09C267.71 192.09 268.71 175.09 263.34 170.22C260.24 167.39 252.34 163 252.34 163L232.92 168.78C232.92 168.78 222.6 188.29 220.84 199.18C219.93 204.8 223.11 209.81 223.11 209.81L225.05 224.51Z" fill="#C53F3F"/>
<g opacity="0.2">
<path d="M261.06 204.9C258.26 205.99 256.52 208.79 255.38 211.56C254.24 214.33 253.47 217.33 251.68 219.73C248.59 223.88 243.15 225.45 238.04 226.29C232.93 227.13 227.56 227.57 223.18 230.29L222 233C224.22 234.53 227.11 234.6 229.81 234.52C236.235 234.311 242.632 233.558 248.93 232.27C251.25 231.79 253.67 231.18 255.39 229.55C256.74 228.083 257.712 226.308 258.22 224.38C260.289 218.101 261.25 211.509 261.06 204.9Z" fill="black"/>
</g>
<path d="M212.07 223.59L245.07 215.26L248.55 195.4L264.34 197.86C264.34 197.86 258.04 222.15 254.7 226.44C251.36 230.73 211.15 233.21 211.15 233.21L212.07 223.59Z" fill="#FFBE9D"/>
<path d="M260.72 140.67C260.789 139.446 261.28 138.284 262.11 137.381C262.939 136.479 264.056 135.892 265.27 135.72C265.93 135.61 266.608 135.693 267.222 135.959C267.835 136.225 268.359 136.663 268.73 137.22C268.942 137.654 269.059 138.128 269.075 138.61C269.09 139.093 269.004 139.573 268.82 140.02C268.535 140.816 268.058 141.529 267.431 142.096C266.805 142.663 266.047 143.067 265.227 143.271C264.406 143.475 263.548 143.473 262.729 143.265C261.91 143.057 261.154 142.65 260.53 142.08" fill="#263238"/>
<path d="M266.15 198.15C266.014 198.163 265.876 198.163 265.74 198.15L264.55 198.01L260.11 197.39L244.88 195.11H244.65V194.89C244.85 192.37 245.22 189.75 245.7 187.02C246.06 185.02 246.48 183.02 246.99 181.21C247.455 179.417 248.074 177.667 248.84 175.98C249.536 174.434 250.516 173.033 251.73 171.85C252.752 170.782 253.963 169.911 255.3 169.28C256.435 168.799 257.675 168.62 258.9 168.76C259.814 168.847 260.706 169.087 261.54 169.47C262.075 169.717 262.562 170.055 262.98 170.47C263.09 170.571 263.19 170.681 263.28 170.8L263.37 170.93C262.808 170.412 262.162 169.993 261.46 169.69C260.633 169.356 259.759 169.153 258.87 169.09C257.701 168.983 256.524 169.175 255.45 169.65C254.172 170.289 253.018 171.149 252.04 172.19C250.88 173.343 249.942 174.699 249.27 176.19C248.529 177.859 247.933 179.589 247.49 181.36C246.98 183.19 246.57 185.13 246.22 187.12C245.71 189.82 245.42 192.49 245.09 194.9L244.94 194.66L260.14 197.12L264.55 197.88L265.73 198.11C266 198.09 266.15 198.13 266.15 198.15Z" fill="#263238"/>
<path d="M235.43 213.76C234.782 213.206 234.217 212.563 233.75 211.85C231.318 208.529 229.661 204.705 228.9 200.66C228.699 199.832 228.615 198.981 228.65 198.13C229.28 200.922 230.125 203.66 231.18 206.32C231.99 208.171 232.953 209.95 234.06 211.64C234.562 212.316 235.019 213.025 235.43 213.76Z" fill="#263238"/>
<path d="M217.37 358.33C215.854 358.83 214.288 359.165 212.7 359.33C211.14 359.668 209.546 359.829 207.95 359.81C209.466 359.31 211.032 358.975 212.62 358.81C214.18 358.472 215.774 358.311 217.37 358.33Z" fill="#263238"/>
<path d="M227.66 367.25C227.247 367.414 226.818 367.534 226.38 367.61L222.88 368.42C219.88 369.1 215.88 370.05 211.35 371.18C206.82 372.31 202.81 373.43 199.89 374.24L196.42 375.24C196 375.378 195.568 375.476 195.13 375.53C195.525 375.333 195.936 375.172 196.36 375.05C197.16 374.76 198.36 374.38 199.78 373.93C202.68 373.02 206.72 371.86 211.22 370.72C215.72 369.58 219.82 368.72 222.8 368.1C224.29 367.81 225.5 367.59 226.34 367.45C226.773 367.346 227.215 367.279 227.66 367.25Z" fill="#263238"/>
<path d="M272.28 130.37C272.279 130.529 272.255 130.687 272.21 130.84C272.09 131.282 271.879 131.694 271.59 132.05C271.038 132.695 270.34 133.197 269.553 133.516C268.766 133.834 267.915 133.959 267.07 133.88C265.909 133.756 264.788 133.388 263.78 132.8C262.642 132.133 261.571 131.36 260.58 130.49C259.509 129.546 258.376 128.674 257.19 127.88C255.925 127.05 254.469 126.554 252.96 126.44C251.429 126.383 249.896 126.426 248.37 126.57C246.914 126.686 245.449 126.619 244.01 126.37C241.567 125.926 239.261 124.923 237.27 123.44C235.93 122.459 234.758 121.266 233.8 119.91C233.535 119.545 233.298 119.16 233.09 118.76C233.008 118.624 232.941 118.48 232.89 118.33C232.94 118.33 233.25 118.88 233.96 119.79C234.965 121.075 236.154 122.204 237.49 123.14C239.456 124.541 241.712 125.484 244.09 125.9C245.494 126.131 246.922 126.185 248.34 126.06C249.892 125.906 251.452 125.86 253.01 125.92C254.598 126.042 256.129 126.565 257.46 127.44C258.662 128.259 259.808 129.157 260.89 130.13C262.89 131.92 265.05 133.32 267.1 133.51C268.198 133.707 269.33 133.497 270.283 132.919C271.237 132.341 271.947 131.434 272.28 130.37Z" fill="#455A64"/>
<path d="M295.65 157.42C295.65 157.42 295.57 157.54 295.38 157.74C295.098 158.018 294.794 158.272 294.47 158.5C293.267 159.341 291.87 159.864 290.41 160.02C288.211 160.249 286.009 159.622 284.26 158.27C283.224 157.485 282.374 156.481 281.77 155.33C281.181 154.085 280.751 152.772 280.49 151.42C280.249 150.108 279.894 148.82 279.43 147.57C278.995 146.414 278.28 145.383 277.35 144.57C276.506 143.881 275.439 143.526 274.35 143.57C273.372 143.638 272.401 143.792 271.45 144.03C270.033 144.451 268.517 144.402 267.13 143.89C266.753 143.731 266.413 143.496 266.13 143.2C266.032 143.101 265.951 142.986 265.89 142.86C266.27 143.213 266.706 143.5 267.18 143.71C268.535 144.132 269.985 144.132 271.34 143.71C272.321 143.439 273.326 143.262 274.34 143.18C275.539 143.084 276.731 143.441 277.68 144.18C278.686 145.015 279.464 146.092 279.94 147.31C280.422 148.588 280.79 149.907 281.04 151.25C281.287 152.559 281.697 153.832 282.26 155.04C282.826 156.127 283.621 157.079 284.59 157.83C286.241 159.133 288.324 159.762 290.42 159.59C291.839 159.47 293.209 159.018 294.42 158.27C295.21 157.79 295.61 157.39 295.65 157.42Z" fill="#263238"/>
<path d="M208.55 224.2C208.55 224.2 201.92 219.28 201.05 219.57C200.18 219.86 193.05 223.8 193.05 223.8L192.47 229.8C192.974 229.914 193.496 229.914 194 229.8L194.36 229.58C194.414 230.04 194.626 230.467 194.96 230.788C195.294 231.109 195.728 231.304 196.19 231.34C196.19 231.34 197.36 233.34 198.89 232.5C198.89 232.5 198.89 233.74 200 233.82C200.701 233.836 201.392 233.659 202 233.31L202.73 232.5L204.63 231.85C204.63 231.85 206.03 234.18 208.03 234.18C210.03 234.18 215.38 232.34 215.38 232.34L212.95 223.39L208.55 224.2Z" fill="#FFBE9D"/>
<path d="M203.92 227.82C203.92 227.87 203.6 228.06 203.03 228.34C202.302 228.687 201.609 229.102 200.96 229.58C200.325 230.06 199.809 230.679 199.45 231.39C199.19 231.94 199.13 232.33 199.08 232.32C199.015 231.981 199.061 231.631 199.21 231.32C199.529 230.527 200.058 229.835 200.74 229.32C201.41 228.821 202.147 228.421 202.93 228.13C203.24 227.97 203.575 227.865 203.92 227.82Z" fill="#EB996E"/>
<path d="M196.55 232C196.475 231.55 196.475 231.09 196.55 230.64C196.588 229.517 196.912 228.423 197.49 227.46C198.162 226.543 199.118 225.875 200.21 225.56C200.633 225.381 201.082 225.273 201.54 225.24C201.148 225.472 200.733 225.659 200.3 225.8C199.3 226.162 198.428 226.809 197.79 227.66C197.248 228.578 196.907 229.6 196.79 230.66C196.756 231.114 196.676 231.563 196.55 232Z" fill="#EB996E"/>
<path d="M200.41 222.32C200.03 222.683 199.572 222.953 199.07 223.11C198.63 223.29 198.07 223.47 197.51 223.72C196.894 223.951 196.337 224.317 195.88 224.79C195.124 225.743 194.68 226.906 194.61 228.12C194.588 228.634 194.528 229.145 194.43 229.65C194.322 229.141 194.299 228.617 194.36 228.1C194.355 226.805 194.796 225.548 195.61 224.54C196.107 224.029 196.716 223.642 197.39 223.41C197.99 223.17 198.53 223.02 198.98 222.87C199.88 222.58 200.38 222.27 200.41 222.32Z" fill="#EB996E"/>
<path d="M218 261.49C218 261.49 218.26 261.24 218.78 260.88C219.3 260.52 220.06 260.02 221 259.4C222.89 258.17 225.52 256.5 228.44 254.68L228.72 254.51L228.6 254.74C228.46 251.38 228.37 248.34 228.33 246.15C228.33 245.06 228.33 244.15 228.33 243.56C228.312 243.242 228.332 242.923 228.39 242.61C228.481 242.915 228.529 243.232 228.53 243.55C228.58 244.16 228.65 245.04 228.71 246.14C228.85 248.33 229 251.36 229.14 254.72V254.87L229 255L228.72 255.18C225.8 256.99 223.14 258.61 221.2 259.76C220.2 260.34 219.44 260.76 218.89 261.1C218.611 261.267 218.312 261.398 218 261.49Z" fill="#455A64"/>
<path d="M445 352.15C445 352.3 432 352.41 415.94 352.41C399.88 352.41 386.94 352.3 386.94 352.15C386.94 352 399.94 351.89 415.94 351.89C431.94 351.89 445 352 445 352.15Z" fill="#263238"/>
<path d="M425.78 357.12C425.78 357.26 411.61 357.38 394.13 357.38C376.65 357.38 362.46 357.26 362.46 357.12C362.46 356.98 376.64 356.86 394.13 356.86C411.62 356.86 425.78 357 425.78 357.12Z" fill="#263238"/>
<path d="M105.49 341.58C105.49 341.72 98.7 341.84 90.31 341.84C81.92 341.84 75.13 341.72 75.13 341.58C75.13 341.44 81.93 341.32 90.31 341.32C98.69 341.32 105.49 341.44 105.49 341.58Z" fill="#263238"/>
<path d="M100.64 337.33C100.64 337.47 91.53 337.59 80.3 337.59C69.07 337.59 60 337.47 60 337.33C60 337.19 69.11 337.07 80.35 337.07C91.59 337.07 100.64 337.19 100.64 337.33Z" fill="#263238"/>
<path d="M322 217C322 217.14 312.89 217.26 301.66 217.26C290.43 217.26 281.31 217.14 281.31 217C281.31 216.86 290.42 216.74 301.66 216.74C312.9 216.74 322 216.89 322 217Z" fill="#263238"/>
<path d="M320.78 211.57C320.78 211.72 314.78 211.83 307.42 211.83C300.06 211.83 294.06 211.72 294.06 211.57C294.06 211.42 300.06 211.31 307.42 211.31C314.78 211.31 320.78 211.43 320.78 211.57Z" fill="#263238"/>
</svg>
